<?xml version="1.0" standalone="no"?>
<!DOCTYPE svg PUBLIC "-//W3C//DTD SVG 20010904//EN"
 "http://www.w3.org/TR/2001/REC-SVG-20010904/DTD/svg10.dtd">
<svg version="1.0" xmlns="http://www.w3.org/2000/svg"
 width="700.000000pt" height="700.000000pt" viewBox="0 0 700.000000 700.000000"
 preserveAspectRatio="xMidYMid meet">
<metadata>
Created by potrace 1.11, written by Peter Selinger 2001-2013
</metadata>
<g transform="translate(0.000000,700.000000) scale(0.100000,-0.100000)"
fill="#000000" stroke="none">
<path d="M3308 6995 c-2 -1 -41 -5 -88 -9 -124 -10 -176 -16 -265 -31 -44 -8
-93 -16 -110 -19 -51 -8 -88 -16 -150 -33 -59 -15 -74 -18 -115 -28 -12 -2
-65 -18 -118 -35 -431 -138 -807 -339 -1152 -615 -110 -88 -132 -107 -245
-215 -93 -88 -213 -221 -317 -351 -153 -190 -364 -544 -454 -764 -14 -33 -29
-69 -34 -80 -94 -203 -186 -555 -234 -895 -19 -139 -26 -494 -13 -680 10 -140
28 -277 54 -400 8 -41 17 -84 19 -95 34 -182 144 -509 238 -709 25 -54 46 -99
46 -101 0 -1 27 -51 60 -110 33 -59 60 -109 60 -110 0 -2 37 -59 83 -127 97
-146 186 -265 276 -368 82 -94 320 -332 386 -385 27 -22 57 -48 67 -58 10 -9
73 -57 141 -105 378 -271 754 -447 1199 -561 122 -31 239 -55 255 -53 2 1 17
-3 34 -8 17 -5 57 -12 88 -15 31 -3 67 -8 81 -10 162 -27 612 -26 810 1 351
49 627 122 939 250 110 45 298 138 379 186 34 21 65 38 68 38 7 0 229 148 298
199 249 184 498 431 683 676 73 98 173 241 173 248 0 3 13 25 29 49 150 226
325 639 411 972 29 114 33 133 45 201 3 17 10 53 15 80 10 50 16 95 26 190 3
28 8 61 11 75 8 38 10 539 2 590 -4 25 -10 77 -14 115 -8 88 -13 123 -30 210
-8 39 -17 88 -21 110 -10 65 -79 311 -122 435 -104 301 -255 600 -421 834 -31
43 -69 98 -86 121 -16 24 -49 65 -72 91 -23 27 -56 67 -74 89 -38 46 -279 288
-354 355 -175 157 -421 323 -710 480 -55 29 -259 119 -345 151 -206 77 -538
164 -695 183 -27 4 -61 8 -75 11 -37 6 -117 16 -185 21 -61 6 -472 13 -477 9z
m517 -68 c17 -3 55 -8 85 -11 46 -6 129 -19 255 -40 11 -2 76 -18 145 -35 773
-191 1459 -638 1924 -1255 240 -318 415 -656 545 -1051 20 -63 67 -233 75
-275 3 -14 7 -36 10 -50 30 -135 49 -257 62 -390 3 -36 7 -83 10 -105 9 -96 2
-451 -10 -531 -3 -21 -8 -66 -11 -99 -8 -80 -16 -138 -20 -145 -2 -3 -6 -26
-10 -50 -15 -105 -81 -363 -127 -495 -12 -33 -29 -84 -40 -114 -10 -30 -22
-59 -26 -65 -5 -6 -17 -33 -27 -61 -23 -66 -158 -335 -201 -402 -19 -29 -34
-55 -34 -57 0 -18 -188 -281 -264 -371 -28 -33 -60 -70 -71 -83 -11 -14 -32
-38 -47 -56 l-28 -31 -1 30 c0 17 -2 41 -4 55 -1 14 -6 79 -9 145 -4 66 -9
140 -11 165 -2 25 -7 92 -10 150 -3 58 -8 125 -10 150 -2 25 -6 90 -10 145 -3
55 -8 125 -10 155 -3 30 -7 89 -9 130 -9 130 -18 263 -21 320 -2 30 -7 114
-10 185 -6 147 -10 181 -31 320 -34 217 -112 459 -212 664 l-49 98 36 13 c409
142 595 610 394 989 -183 345 -605 472 -954 287 -123 -66 -250 -206 -304 -336
-10 -25 -20 -46 -21 -48 0 -1 -34 16 -75 39 -256 145 -589 261 -844 294 -11 2
-43 6 -70 10 -98 14 -414 21 -475 11 -14 -3 -52 -7 -85 -11 -149 -15 -382 -69
-520 -121 -38 -14 -81 -29 -95 -34 -44 -14 -234 -106 -309 -149 -40 -24 -74
-41 -75 -39 -2 1 -10 23 -20 46 -54 139 -180 272 -331 351 -202 104 -477 93
-675 -28 -146 -88 -267 -252 -311 -417 -24 -92 -30 -268 -11 -325 7 -20 14
-45 16 -55 21 -106 132 -268 246 -358 39 -31 131 -81 187 -101 l51 -18 -39
-78 c-101 -199 -195 -493 -224 -694 -17 -121 -25 -207 -30 -320 -3 -71 -7
-157 -10 -190 -2 -33 -7 -98 -10 -145 -3 -47 -8 -112 -10 -145 -5 -60 -13
-180 -20 -303 -3 -37 -7 -98 -9 -137 -3 -38 -8 -110 -11 -160 -3 -49 -8 -117
-10 -150 -2 -33 -7 -105 -10 -160 -4 -55 -8 -116 -10 -135 -2 -19 -4 -48 -4
-63 -1 -27 -2 -26 -50 25 -72 79 -137 160 -223 283 -43 61 -81 115 -86 120
-23 28 -157 264 -207 365 -181 367 -306 805 -342 1205 -15 167 -8 631 11 721
2 12 7 45 11 75 4 30 9 67 11 83 2 15 6 35 8 45 3 9 8 32 11 51 36 212 143
551 241 759 24 51 44 95 44 98 0 2 28 55 62 116 92 166 186 313 282 438 28 36
62 80 76 99 78 102 322 350 460 466 391 329 864 571 1370 699 58 15 116 29
130 31 14 3 32 7 40 9 8 2 38 7 65 11 28 3 53 8 56 10 4 2 31 6 60 9 30 3 68
8 84 10 17 3 62 8 100 11 39 4 72 8 74 10 5 5 521 -4 556 -9z"/>
</g>
</svg>
