<?xml version="1.0" encoding="utf-8"?>
<!-- Generator: Adobe Illustrator 21.0.0, SVG Export Plug-In . SVG Version: 6.00 Build 0)  -->
<svg version="1.1" id="Calque_1" preserveAspectRatio="none" xmlns="http://www.w3.org/2000/svg" xmlns:xlink="http://www.w3.org/1999/xlink" x="0px" y="0px"
	 viewBox="0 0 1428.1 44" style="enable-background:new 0 0 1428.1 44;" xml:space="preserve">
<style type="text/css">
	.st0{fill:#0024BB;}
</style>
<title>blue-wave</title>
<g>
	<path class="st0" d="M1408.2,19.8c-11,0-19.8-8.9-19.8-19.8c0,0,0,0,0,0c0,11-8.9,19.8-19.8,19.8c-11,0-19.8-8.9-19.8-19.8
		c0,0,0,0,0,0c0,11-8.9,19.8-19.8,19.8c-11,0-19.8-8.9-19.8-19.8c0,11-8.9,19.8-19.8,19.8c-11,0-19.8-8.9-19.8-19.8
		c0,11-8.9,19.8-19.8,19.8c-11,0-19.8-8.9-19.8-19.8c0,11-8.9,19.8-19.8,19.8c-11,0-19.8-8.9-19.8-19.8c0,11-8.9,19.8-19.8,19.8
		c-11,0-19.8-8.9-19.8-19.8c0,0,0,0,0,0c0,11-8.9,19.8-19.8,19.8c-11,0-19.8-8.9-19.8-19.8c0,11-8.9,19.9-19.9,19.9S1071,11,1071,0
		c0,11-8.9,19.8-19.8,19.8c-11,0-19.8-8.9-19.8-19.8c0,11-8.9,19.8-19.8,19.8l0,0c-10.9,0-19.8-8.9-19.8-19.8
		c0,11-8.9,19.9-19.9,19.9C960.9,19.9,952,11,952,0c0,11-8.9,19.8-19.8,19.8c-11,0-19.8-8.9-19.8-19.8c-0.4,10.9-9.6,19.5-20.6,19
		c-10.3-0.4-18.6-8.7-19-19c0,11-8.9,19.9-19.9,19.9C841.9,19.9,833,11,833,0c0,11-8.9,19.8-19.8,19.8c-11,0-19.8-8.9-19.8-19.8
		c0.4,10.9-8.1,20.2-19,20.6c-10.9,0.4-20.2-8.1-20.6-19c0-0.5,0-1,0-1.5c0,11-8.9,19.9-19.9,19.9C722.9,19.9,714,11,714,0
		c0,11-8.9,19.8-19.8,19.8c-11,0-19.8-8.9-19.8-19.8c0,11-8.9,19.8-19.8,19.8c-11,0-19.8-8.9-19.8-19.8c0,11-8.9,19.8-19.8,19.8
		S595,11,595,0c0,11-8.9,19.8-19.8,19.8c-11,0-19.8-8.9-19.8-19.8c0,11-8.9,19.8-19.8,19.8c-11,0-19.8-8.9-19.8-19.8
		c0,11-8.9,19.8-19.8,19.8S476,11,476,0c0,11-8.9,19.8-19.8,19.8S436.3,11,436.3,0c0,11-8.9,19.8-19.8,19.8S396.7,11,396.7,0
		c0,11-8.9,19.8-19.8,19.8S357,11,357,0c0,11-8.9,19.8-19.8,19.8S317.3,11,317.3,0c0,11-8.9,19.8-19.8,19.8S277.7,11,277.7,0
		c0,11-8.9,19.8-19.8,19.8S238,11,238,0c0,11-8.9,19.8-19.8,19.8c-11,0-19.8-8.9-19.8-19.8c0,11-8.9,19.8-19.8,19.8
		c-11,0-19.8-8.9-19.8-19.8c0,11-8.9,19.8-19.8,19.8S119,11,119,0c0,11-8.9,19.8-19.8,19.8S79.3,11,79.3,0c0,11-8.9,19.8-19.8,19.8
		S39.7,11,39.7,0c0,11-8.9,19.8-19.8,19.8S0,11,0,0v44h1428.1V0C1428.1,11,1419.2,19.8,1408.2,19.8L1408.2,19.8z"/>
</g>
</svg>
