<svg width="60" height="54" xmlns="http://www.w3.org/2000/svg"><title>Eye Icon</title><g fill="none" fill-rule="evenodd"><path d="M51.601 9.078c-3.858-4.026-12.058-6.803-21.55-6.803-9.494 0-17.694 2.777-21.552 6.803" stroke="#FFF" stroke-width="4" stroke-linecap="round" stroke-linejoin="round"/><path d="M30.052 26.587c-4.707 0-8.521 3.803-8.521 8.494s3.814 8.495 8.521 8.495c4.708 0 8.522-3.804 8.522-8.495 0-4.69-3.814-8.494-8.522-8.494m0 4.963a3.541 3.541 0 0 1 3.543 3.531 3.54 3.54 0 0 1-3.543 3.532 3.54 3.54 0 0 1-3.543-3.532c0-1.946 1.59-3.53 3.543-3.53" fill="#FFF"/><path d="M57.023 35.082s-12.075 16.694-26.97 16.694c-14.897 0-26.971-16.694-26.971-16.694s12.074-16.696 26.97-16.696c14.896 0 26.971 16.696 26.971 16.696z" stroke="#FFF" stroke-width="4"/></g></svg>