<svg width="190" height="190" xmlns="http://www.w3.org/2000/svg" xmlns:xlink="http://www.w3.org/1999/xlink"><title>SVG</title><defs><path d="M72.914 145.622c-40.185 0-72.76-32.47-72.76-72.521C.153 33.048 32.728.579 72.913.579c40.184 0 72.76 32.47 72.76 72.522 0 40.052-32.576 72.52-72.76 72.52z" id="a"/><path id="c" d="M0 212.712h144.868V0H0z"/><path d="M94.958 167.545c-40.185 0-72.76-32.47-72.76-72.521 0-40.053 32.575-72.522 72.76-72.522 40.184 0 72.76 32.47 72.76 72.522 0 40.052-32.576 72.52-72.76 72.52z" id="f"/><filter x="-1.7%" y="-1.7%" width="103.4%" height="103.4%" filterUnits="objectBoundingBox" id="e"><feMorphology radius="5" in="SourceAlpha" result="shadowSpreadInner1"/><feOffset in="shadowSpreadInner1" result="shadowOffsetInner1"/><feComposite in="shadowOffsetInner1" in2="SourceAlpha" operator="arithmetic" k2="-1" k3="1" result="shadowInnerInner1"/><feColorMatrix values="0 0 0 0 0 0 0 0 0 0 0 0 0 0 0 0 0 0 0.1 0" in="shadowInnerInner1"/></filter></defs><g fill="none" fill-rule="evenodd"><path d="M189.653 95.024c0 52.127-42.396 94.384-94.695 94.384-52.299 0-94.696-42.257-94.696-94.384S42.66.639 94.958.639s94.695 42.258 94.695 94.385" fill="#7297F4"/><path d="M174.951 95.024c0 44.034-35.814 79.73-79.993 79.73-44.18 0-79.995-35.696-79.995-79.73 0-44.034 35.815-79.731 79.995-79.731 44.18 0 79.993 35.697 79.993 79.73" fill="#415EA8"/><path d="M97.814 10.811a4.05 4.05 0 0 1-5.714 0 4.018 4.018 0 0 1 0-5.695 4.05 4.05 0 0 1 5.714 0 4.018 4.018 0 0 1 0 5.695" fill="#FCDA91"/><path d="M91.68 10.317a3.977 3.977 0 0 0 .916.914l5.64-5.622a4.066 4.066 0 0 0-.917-.913l-5.64 5.621z" fill="#F9B423"/><path d="M97.814 184.924a4.05 4.05 0 0 1-5.714 0 4.018 4.018 0 0 1 0-5.695 4.05 4.05 0 0 1 5.714 0 4.018 4.018 0 0 1 0 5.695" fill="#FCDA91"/><path d="M91.68 184.43a4.014 4.014 0 0 0 .916.914l5.64-5.622a4.07 4.07 0 0 0-.917-.912l-5.64 5.62z" fill="#F9B423"/><path d="M37.237 33.462a4.034 4.034 0 0 1-4.04 4.027 4.034 4.034 0 0 1-4.04-4.027 4.034 4.034 0 0 1 4.04-4.027 4.034 4.034 0 0 1 4.04 4.027" fill="#FCDA91"/><path d="M32.549 37.437c.21.033.427.052.647.052.221 0 .437-.019.649-.052v-7.95a4.102 4.102 0 0 0-1.296 0v7.95z" fill="#F9B423"/><path d="M160.759 156.578a4.034 4.034 0 0 1-4.04 4.027 4.034 4.034 0 0 1-4.04-4.027 4.033 4.033 0 0 1 4.04-4.026 4.033 4.033 0 0 1 4.04 4.026" fill="#FCDA91"/><path d="M156.071 160.553a4.094 4.094 0 0 0 1.296 0v-7.95a4.097 4.097 0 0 0-1.296 0v7.95z" fill="#F9B423"/><path d="M10.471 92.172a4.018 4.018 0 0 1 0 5.695 4.05 4.05 0 0 1-5.714 0 4.018 4.018 0 0 1 0-5.695 4.05 4.05 0 0 1 5.714 0" fill="#FCDA91"/><path d="M9.976 98.287a4.058 4.058 0 0 0 .916-.913l-5.64-5.621a4.06 4.06 0 0 0-.915.913l5.64 5.62z" fill="#F9B423"/><path d="M185.158 92.172a4.018 4.018 0 0 1 0 5.695 4.05 4.05 0 0 1-5.714 0 4.018 4.018 0 0 1 0-5.695 4.05 4.05 0 0 1 5.714 0" fill="#FCDA91"/><path d="M184.663 98.287a3.983 3.983 0 0 0 .916-.913l-5.64-5.621a4.027 4.027 0 0 0-.916.913l5.64 5.62z" fill="#F9B423"/><path d="M33.196 152.551a4.033 4.033 0 0 1 4.04 4.027 4.034 4.034 0 0 1-4.04 4.028 4.034 4.034 0 0 1-4.04-4.028 4.033 4.033 0 0 1 4.04-4.027" fill="#FCDA91"/><path d="M37.184 157.224a4.06 4.06 0 0 0 0-1.292h-7.976a4.056 4.056 0 0 0 0 1.292h7.976z" fill="#F9B423"/><path d="M156.718 29.434a4.034 4.034 0 0 1 4.04 4.028 4.034 4.034 0 0 1-4.04 4.027 4.034 4.034 0 0 1-4.04-4.027 4.033 4.033 0 0 1 4.04-4.028" fill="#FCDA91"/><path d="M160.707 34.107a4.05 4.05 0 0 0 0-1.291h-7.976a4.062 4.062 0 0 0 0 1.291h7.976z" fill="#F9B423"/><g transform="translate(22.044 21.923)"><mask id="b" fill="#fff"><use xlink:href="#a"/></mask><use fill="#35DFCF" xlink:href="#a"/><g mask="url(#b)"><g transform="translate(0 28.05)"><path d="M120.916 52.026c4.43 1.755 5.902 6.64 5.743 11.069-.16 4.45-2.363 8.683-5.86 11.382a15.195 15.195 0 0 1-2.755 1.677c.043.452.064.907.064 1.37 0 7.917-6.463 14.335-14.424 14.335-7.804 0-14.162-6.171-14.411-13.872l-15.114.234v.002-.002l-11.774-.182c.001.063-.023.121-.023.184 0 7.917-6.454 14.334-14.415 14.334-7.96 0-14.413-6.417-14.413-14.334 0-.319.027-.63.048-.943a15.207 15.207 0 0 1-6.054-2.803c-3.496-2.699-5.698-6.933-5.858-11.382-.159-4.43 1.313-9.314 5.745-11.07 2.21-.874 4.618-1.124 6.88-1.848 2.265-.725 4.525-2.102 5.345-4.322.764-2.068.107-4.393-.9-6.356-1.005-1.962-2.358-3.76-3.106-5.832-1.103-3.061-.754-6.581.816-9.434 1.57-2.852 4.311-5.02 7.42-6.024 1.502-.485 3.08-.714 4.574-1.222a8.011 8.011 0 0 0 3.18-1.967c1.09-1.092 1.145-2.597 1.297-4.063C52.921 4.921 57.842 0 63.911 0H84.61c5.988 0 10.874 4.794 10.99 10.75l.04 2.08c.156.812.438 1.575 1.066 2.203.914.917 1.948 1.544 3.18 1.962 1.494.508 3.072.734 4.573 1.218 3.11 1.004 5.85 3.17 7.42 6.023 1.571 2.852 1.92 6.37.817 9.433-.748 2.073-2.1 3.869-3.107 5.831-1.005 1.963-1.662 4.289-.898 6.357.818 2.22 3.079 3.596 5.343 4.32 2.264.726 4.672.975 6.882 1.85zM44.832 22.16s-6.52.35-6.253 6.954" fill="#415EA8"/><path d="M44.832 22.16s-6.52.35-6.253 6.954" stroke="#FFF" stroke-width=".931" stroke-linecap="round"/><path d="M39.54 31.717a.53.53 0 0 1-1.062 0 .53.53 0 0 1 .532-.527.53.53 0 0 1 .53.527M27.222 68.786a.733.733 0 0 1-.736.732.734.734 0 0 1-.736-.732c0-.404.33-.732.736-.732.407 0 .736.328.736.732M66.358 2.684c0 .405-.33.732-.736.732a.733.733 0 0 1-.736-.732c0-.404.33-.731.736-.731.406 0 .736.327.736.731m-2.765 0s-6.92.615-7.12 6.107" fill="#415EA8"/><path d="M63.593 2.684s-6.92.615-7.12 6.107" stroke="#FFF" stroke-width=".931" stroke-linecap="round"/><path d="M28.466 56.095s-6.403 2.056-2.926 10.719" fill="#415EA8"/><path d="M28.466 56.095s-6.403 2.056-2.926 10.719" stroke="#FFF" stroke-width=".931" stroke-linecap="round"/><path d="M54.994 66.834c-.287 1.066-.134 2.414.83 2.958.864.487 1.94.111 2.856-.27l11.086-4.616c.675-.281 1.37-.576 1.87-1.107.876-.93.947-2.33.965-3.604.014-.821.025-1.66-.226-2.443-.252-.783-.816-1.513-1.609-1.747-.791-.233-1.784.193-1.976.993-.104.43.025.884-.006 1.326-.062.851-.723 1.567-1.491 1.947-.77.38-1.64.489-2.491.606-2.016.277-4.056.639-5.873 1.55-1.816.912-3.406 2.452-3.935 4.407" fill="#415EA8"/><path d="M74.162 57.092c-9.093 0-17.263-7.33-17.263-16.375l-1.597-16.704h37.722l-1.598 16.704c0 9.045-8.17 16.375-17.264 16.375" fill="#FFD2F6"/><path fill="#D3ADCC" d="M73.802 25.636v-1.624h-2.468l.01 1.624z"/><path d="M66.356 47.352c.435-.874 1.508-1.266 2.489-1.256.982.012 1.928.336 2.892.52 1.882.36 3.866.17 5.644-.54.807-.321 1.592-.752 2.457-.848.865-.095 1.867.265 2.165 1.078.268.731-.112 1.537-.573 2.164-1.339 1.83-3.433 3.05-5.661 3.502-2.229.449-4.576.157-6.7-.65-.849-.323-1.693-.747-2.274-1.442-.582-.696-.843-1.718-.44-2.528" fill="#FFF"/><mask id="d" fill="#fff"><use xlink:href="#c"/></mask><path fill="#1CDFCF" mask="url(#d)" d="M55.302 24.079h37.721v-7.344H55.302z"/><path fill="#FFF" mask="url(#d)" d="M55.302 22.16h37.721v-3.176H55.302zM71.737 46.6c-.964-.183-1.91-.507-2.892-.518a3.54 3.54 0 0 0-1.078.155c0 .745.48 1.397 1.191 1.632 1.986.655 6.122 1.572 9.806-.483.556-.31.923-.874.997-1.502l.077-.67c-.865.095-1.65.526-2.457.847a10.189 10.189 0 0 1-5.644.54"/><path d="M59.094 36.725c0 2.374-1.937 4.3-4.324 4.3-2.39 0-4.325-1.926-4.325-4.3 0-2.375 1.936-4.3 4.325-4.3 2.387 0 4.324 1.925 4.324 4.3" fill="#FFD2F6" mask="url(#d)"/><path d="M58.804 34.154l3.339.06c5.707.102 10.389-4.472 10.389-10.149l-17.23-.053.724 7.585a2.835 2.835 0 0 0 2.778 2.557" fill="#415EA8" mask="url(#d)"/><path d="M72.532 24.065s1.895 5.237-.574 8.317c-.404.506-.032 1.252.617 1.252h15.771a4.12 4.12 0 0 0 4.112-3.72l.566-5.902-20.492.053z" fill="#415EA8" mask="url(#d)"/><path d="M83.81 31.31a.7.7 0 0 1-.702.699.7.7 0 0 1-.702-.698c0-.386.315-.699.702-.699a.7.7 0 0 1 .703.699" fill="#FFF" mask="url(#d)"/><path d="M85.04 31.281s4.191.757 5.09-2.962" stroke="#FFF" stroke-width=".931" stroke-linecap="round" mask="url(#d)"/><path fill="#D3ADCC" mask="url(#d)" d="M56.127 32.643l.75 7.836-1.083.42-.492-8.44z"/><path d="M89.297 36.725c0 2.374 1.936 4.3 4.324 4.3 2.389 0 4.324-1.926 4.324-4.3 0-2.375-1.935-4.3-4.324-4.3-2.388 0-4.324 1.925-4.324 4.3" fill="#FFD2F6" mask="url(#d)"/><path fill="#D3ADCC" mask="url(#d)" d="M92.264 32.643l-.75 7.836 1.082.42.492-8.44z"/><path d="M57.397 26.09l.5 4.764" stroke="#FFF" stroke-width=".931" stroke-linecap="round" mask="url(#d)"/><path d="M92.867 24.012l-20.335.053s.225.63.418 1.572h19.917v-1.625zm-20.469 1.624c.08-.512.134-1.034.134-1.57l-17.23-.054.155 1.624h16.94z" fill="#2C4375" mask="url(#d)"/><path fill="#FFD2F6" mask="url(#d)" d="M70.804 64.42h6.527v-7.66h-6.527zm-2.907-25.914c-.072-.133-3.981-2.676-7.186.881l-1.48-.44.535-1.735s.761-.415.945-.473c.184-.06 2.146-1.006 2.384-1.006.237 0 2.207-.754 2.292-.495.085.258 1.204.554 1.209.909.006.355 1.3 2.36 1.3 2.36"/><path d="M70.883 46.473l.981-1.008a.812.812 0 0 1 1.007-.126l.471.287a.995.995 0 0 0 1.008.018l.471-.268a.813.813 0 0 1 1.081.263l.542.834s-2.291.797-5.561 0m.477 5.585s.125 1.353 2.35 1.353c1.323.001 2.259-1.075 2.145-1.353 0 0-3.037.102-4.677 0" fill="#E6294B" mask="url(#d)"/><path d="M72.76 45.73s-.558-.267-.97.293" stroke="#FFF" stroke-width=".19" stroke-linecap="round" stroke-linejoin="round" mask="url(#d)"/><path d="M74.556 38.07c-.104-.299-.272-.573-.528-.756-.369-.264-.944-.267-1.237.08-.255.302-.225.742-.221 1.137a5.765 5.765 0 0 1-.36 2.045c-.223.605-.937 1.155-1.106 1.655-.38 1.128 1.014 1.76 2.114 1.526.464-.097.91-.373 1.12-.796.306.133.628.27.962.246.334-.025.677-.268.689-.6.019-.517-.513-.53-.726-.858-.347-.535-.488-1.297-.533-1.921-.031-.45-.004-.906-.074-1.351a2.493 2.493 0 0 0-.1-.406" fill="#E6294B" mask="url(#d)"/><path d="M65.195 40.927c-1.81 0-3.292-1.473-3.292-3.273v-.095c0-1.8 1.482-3.272 3.292-3.272 1.811 0 3.291 1.473 3.291 3.272v.095c0 1.8-1.48 3.273-3.29 3.273" fill="#FFF" mask="url(#d)"/><path d="M67.922 37.607a2.719 2.719 0 0 1-2.727 2.711 2.718 2.718 0 0 1-2.726-2.71 2.72 2.72 0 0 1 2.726-2.713 2.72 2.72 0 0 1 2.727 2.712" fill="#415EA8" mask="url(#d)"/><path d="M68.612 33.421c-1.302-.451-4.61-1.237-7.535 1.026-.684.53-1.628.588-2.393.182l-.769-.405a.362.362 0 0 1 .005-.647c1.906-.922 7.715-3.86 10.866-.42.114.125-.014.32-.174.264" fill="#2C4375" mask="url(#d)"/><path d="M64.79 36.526a.578.578 0 1 1-1.158 0c0-.317.26-.575.579-.575.32 0 .58.258.58.575m-.632.81c.18.055.26.238.13.493-.155.303-.972.549-1.007.05-.009-.134.072-.262.178-.346.107-.083.237-.13.364-.175a.541.541 0 0 1 .335-.022" fill="#FFF" mask="url(#d)"/><path d="M60.03 41.591l1.86-.355a.116.116 0 0 1 .136.14l-.287 1.246c-.024.11.104.188.189.114.417-.36 1.188-1.016 1.282-1.033.098-.016.192 1.184.236 1.804.007.112.155.148.215.052l.944-1.53a.113.113 0 0 0-.035-.158l-2.828-1.81a.12.12 0 0 0-.136.008l-1.669 1.319c-.095.075-.025.226.094.203" fill="#E6294B" mask="url(#d)"/><path d="M82.108 40.927c1.81 0 3.292-1.473 3.292-3.273v-.095c0-1.8-1.481-3.272-3.292-3.272-1.81 0-3.291 1.473-3.291 3.272v.095c0 1.8 1.481 3.273 3.29 3.273" fill="#FFF" mask="url(#d)"/><path d="M79.382 37.607a2.718 2.718 0 0 0 2.726 2.711 2.718 2.718 0 0 0 2.726-2.71 2.72 2.72 0 0 0-2.726-2.713 2.72 2.72 0 0 0-2.726 2.712" fill="#415EA8" mask="url(#d)"/><path d="M78.691 33.421c1.302-.451 4.61-1.237 7.535 1.026.684.53 1.628.588 2.394.182l.769-.405a.362.362 0 0 0-.005-.647c-1.906-.922-7.716-3.86-10.866-.42-.114.125.014.32.173.264" fill="#2C4375" mask="url(#d)"/><path d="M82.514 36.526a.577.577 0 1 0 1.157 0 .577.577 0 0 0-.579-.575.577.577 0 0 0-.578.575m.63.81c-.18.055-.26.238-.129.493.155.303.971.549 1.006.05.01-.134-.07-.262-.178-.346a1.262 1.262 0 0 0-.364-.175.54.54 0 0 0-.335-.022" fill="#FFF" mask="url(#d)"/><path d="M87.272 41.591l-1.86-.355a.116.116 0 0 0-.135.14l.287 1.246a.115.115 0 0 1-.188.114c-.418-.36-1.189-1.016-1.283-1.033-.098-.016-.192 1.184-.235 1.804-.008.112-.156.148-.215.052l-.945-1.53a.114.114 0 0 1 .035-.158l2.828-1.81a.12.12 0 0 1 .136.008l1.67 1.319c.095.075.024.226-.095.203" fill="#E6294B" mask="url(#d)"/><path d="M68.571 135.762l-9.113-4.576-8.552 3.318-.107.006-31.354 16.753a9.43 9.43 0 0 0-1.444.766l-.029.013v.003a7.687 7.687 0 0 0-1.887 1.74c-2.359 3.107-1.195 8.651-.457 12.258l7.122 34.782 8.256.239 1.062-36.323c.001-.009.173-.018.174-.028l36.33-13.235v-15.716zm8.781 0l8.585-4.576 8.289 3.318-.026.006 31.288 16.753c.503.217.963.47 1.412.766l.013.013-.007.003a7.668 7.668 0 0 1 1.882 1.74c2.358 3.107 1.192 8.651.454 12.258l-7.122 34.782-8.257.239-1.06-36.323c-.003-.009.352-.018.35-.028l-35.8-13.235v-15.716z" fill="#FFD2F6" mask="url(#d)"/><path d="M98.679 64.42l6.118-9.903M49.712 64.42l-6.117-9.903" stroke="#FFF" stroke-width=".931" stroke-linecap="round" mask="url(#d)"/><path fill="#FFD2F6" mask="url(#d)" d="M60.297 63.505L36.454 25.67l-11.8-.22.1 2.892 28.49 50.05z"/><path fill="#2C4375" mask="url(#d)" d="M48.797 19.819l-2.35.455-.739-3.77 2.35-.456z"/><path d="M21.148 18.343l-1.425 3.15c-.679 1.5.208 3.24 1.826 3.582l2.24.475-2.641-7.207z" fill="#D3ADCC" mask="url(#d)"/><path fill="#2C4375" mask="url(#d)" d="M42.433 21.117l-24.97 4.836-.763-3.897 24.97-4.835z"/><path fill="#415EA8" mask="url(#d)" d="M20.633 33.832l-5.593 1.084-3.968-20.262 5.593-1.083zm27.428-5.312l-5.592 1.083L38.5 9.342l5.593-1.084z"/><path fill="#2C4375" mask="url(#d)" d="M13.426 26.67l-2.35.456-.74-3.772 2.35-.454z"/><path fill="#2C4375" mask="url(#d)" d="M13.426 26.67l-2.35.456-.74-3.772 2.35-.454z"/><path d="M22.566 16.25l11.48-2.224a1.793 1.793 0 0 1 2.077 1.295l.716 5.781a4.235 4.235 0 0 1-1.116 4.1l-.78.772a7.388 7.388 0 0 1-8.135 1.522l-1.28-.554a4.255 4.255 0 0 1-2.487-3.083l-1.893-5.516a1.785 1.785 0 0 1 1.418-2.093" fill="#FFD2F6" mask="url(#d)"/><path d="M36.328 24.436c-.171.275-.37.534-.605.767l-.78.772a7.392 7.392 0 0 1-8.135 1.522l-1.28-.555a4.232 4.232 0 0 1-.824-.477l.654 2.82c.222.15.455.289.707.397l1.278.556a7.393 7.393 0 0 0 8.137-1.523l.78-.772c.415-.411.732-.897.946-1.422l-.376-1.136c-.115-.344-.244-.432-.502-.949" fill="#D3ADCC" mask="url(#d)"/><path fill="#FFD2F6" mask="url(#d)" d="M87.774 63.505l23.843-37.835 11.799-.22-.1 2.892-28.49 50.05z"/><path fill="#2C4375" mask="url(#d)" d="M99.273 19.819l2.35.455.74-3.77-2.35-.456z"/><path d="M126.923 18.343l1.425 3.15c.678 1.5-.21 3.24-1.826 3.582l-2.24.475 2.641-7.207z" fill="#D3ADCC" mask="url(#d)"/><path fill="#2C4375" mask="url(#d)" d="M105.637 21.117l24.97 4.836.763-3.897-24.968-4.835z"/><path fill="#415EA8" mask="url(#d)" d="M127.438 33.832l5.593 1.084 3.968-20.262-5.593-1.083zM100.01 28.52l5.592 1.083 3.968-20.261-5.593-1.084z"/><path fill="#2C4375" mask="url(#d)" d="M134.645 26.67l2.35.456.74-3.772-2.352-.454z"/><path fill="#2C4375" mask="url(#d)" d="M134.645 26.67l2.35.456.74-3.772-2.352-.454z"/><path d="M125.504 16.25l-11.478-2.224a1.793 1.793 0 0 0-2.078 1.295l-.717 5.781a4.235 4.235 0 0 0 1.117 4.1l.779.772a7.39 7.39 0 0 0 8.136 1.522l1.28-.554a4.255 4.255 0 0 0 2.487-3.083l1.893-5.516a1.786 1.786 0 0 0-1.419-2.093" fill="#FFD2F6" mask="url(#d)"/><path d="M111.743 24.436c.171.275.37.534.605.767l.779.772a7.394 7.394 0 0 0 8.136 1.522l1.28-.555c.295-.129.57-.29.824-.477l-.654 2.82a4.29 4.29 0 0 1-.708.397l-1.278.556a7.391 7.391 0 0 1-8.136-1.523l-.78-.772a4.223 4.223 0 0 1-.946-1.422l.376-1.136c.115-.344.243-.432.502-.949" fill="#D3ADCC" mask="url(#d)"/><path d="M38.802 45.213l5.227 9.303m64.597-9.303l-5.228 9.303" stroke="#FFF" stroke-width="1.441" stroke-linecap="round" mask="url(#d)"/><path d="M89.195 111.398H59.13L51.146 66.62l7.352-2.54a47.948 47.948 0 0 1 31.26-.015l7.42 2.555-7.983 44.777z" fill="#FFD2F6" mask="url(#d)"/><path d="M68.203 73.683s5.52.82 5.581 5.425c0 0 .307-5.115 5.829-5.115" stroke="#D3ADCC" stroke-width=".761" stroke-linecap="round" stroke-linejoin="round" mask="url(#d)"/><path d="M81.258 142.538s5.408-6.26 14.344-8.033l.114-2.78-8.582-.54-5.876 3.985-1.396 6.22 1.396 1.148zm-15.296 0s-5.407-6.26-14.343-8.033l-.114-2.78 8.58-.54 5.877 3.985 1.397 6.22-1.397 1.148z" fill="#1AB5A6" mask="url(#d)"/><path d="M95.716 129.374v2.35a15.824 15.824 0 0 0-8.934 3.153 15.734 15.734 0 0 0-5.524 7.66l-2.495 7.54a2.873 2.873 0 0 1-2.73 1.965h-5.168a2.872 2.872 0 0 1-2.763-2.072l-2.14-7.433a15.72 15.72 0 0 0-5.524-7.66 15.82 15.82 0 0 0-8.933-3.153v-2.35c0-3.906 3.185-7.073 7.113-7.073h29.985c3.928 0 7.113 3.167 7.113 7.073" fill="#1CDFCF" mask="url(#d)"/><path fill="#1AB5A6" mask="url(#d)" d="M69.156 134.165h1.212v-13.098h-1.212z"/><path fill="#FFF" mask="url(#d)" d="M69.156 135.038h1.212v-.873h-1.212z"/><path fill="#1AB5A6" mask="url(#d)" d="M77.06 134.165h1.213v-13.098h-1.214z"/><path fill="#FFF" mask="url(#d)" d="M77.06 135.038h1.213v-.873h-1.214zm-10.425 3.647a.53.53 0 1 0 1.059-.002.53.53 0 0 0-1.06.002"/><path d="M92.023 75.168L91.512 98.7l-2.315 12.694H59.132L56.809 98.7l-.503-23.532s4.254-5.756 3.991-11.663c0 0 5.924-1.962 9.268-1.7L65.622 74.58l8.542 11.234 8.542-11.241-3.943-12.768c3.337-.262 9.268 1.7 9.268 1.7-.272 5.907 3.992 11.663 3.992 11.663" fill="#1CDFCF" mask="url(#d)"/><path d="M99.477 86.768c0 7.056-5.75 12.775-12.846 12.775-7.095 0-12.847-5.72-12.847-12.775 0-7.056 5.752-12.775 12.847-12.775s12.846 5.719 12.846 12.775" fill="#1CDFCF" mask="url(#d)"/><path d="M95.08 91.86s-1.596 5.447-7.052 3.89m8.382-6.643a.53.53 0 0 1-1.062 0 .53.53 0 0 1 1.061 0z" stroke="#FFF" stroke-width=".931" stroke-linecap="round" mask="url(#d)"/><path d="M48.848 86.768c0 7.056 5.751 12.775 12.846 12.775s12.847-5.72 12.847-12.775c0-7.056-5.752-12.775-12.847-12.775s-12.846 5.719-12.846 12.775" fill="#1CDFCF" mask="url(#d)"/><path d="M53.245 91.86s1.596 5.447 7.052 3.89m-8.381-6.643a.53.53 0 0 0 1.061 0 .53.53 0 0 0-1.061 0z" stroke="#FFF" stroke-width=".931" stroke-linecap="round" mask="url(#d)"/><path fill="#415EA8" mask="url(#d)" d="M57.832 121.946H90.29v-18.06H57.832z"/><path d="M90.29 108.122l-11.465 2.537c-.326.072-.264.553.072.54l11.393-.432v-2.645zm-32.457 4.523l9.995 1.48c.24.035.225.384-.016.399l-9.979.61v-2.489z" fill="#2C4375" mask="url(#d)"/><path fill="#1AB5A6" mask="url(#d)" d="M57.935 122.302h32.458v-2.251H57.935z"/></g></g></g><use filter="url(#e)" xlink:href="#f" fill="#000"/></g></svg>