<svg width="191" height="192" xmlns="http://www.w3.org/2000/svg" xmlns:xlink="http://www.w3.org/1999/xlink"><title>Page 1</title><defs><path id="a" d="M0 .351h190.92v191.343H0z"/><path d="M69.46 139.49C31.179 139.49.146 108.388.146 70.023.146 31.657 31.18.555 69.46.555c38.28 0 69.313 31.102 69.313 69.468 0 38.365-31.032 69.467-69.313 69.467z" id="c"/><path id="e" d="M0 203.756h138.006V0H0z"/><path d="M95.46 165.49c-38.281 0-69.314-31.102-69.314-69.467 0-38.366 31.033-69.468 69.314-69.468 38.28 0 69.313 31.102 69.313 69.468 0 38.365-31.032 69.467-69.313 69.467z" id="h"/><filter x="-1.8%" y="-1.8%" width="103.6%" height="103.6%" filterUnits="objectBoundingBox" id="g"><feMorphology radius="5" in="SourceAlpha" result="shadowSpreadInner1"/><feOffset in="shadowSpreadInner1" result="shadowOffsetInner1"/><feComposite in="shadowOffsetInner1" in2="SourceAlpha" operator="arithmetic" k2="-1" k3="1" result="shadowInnerInner1"/><feColorMatrix values="0 0 0 0 0 0 0 0 0 0 0 0 0 0 0 0 0 0 0.1 0" in="shadowInnerInner1"/></filter></defs><g fill="none" fill-rule="evenodd"><g transform="translate(0 .132)"><mask id="b" fill="#fff"><use xlink:href="#a"/></mask><path d="M190.92 96.023c0 52.838-42.74 95.671-95.46 95.671C42.74 191.694 0 148.861 0 96.023 0 43.185 42.74.35 95.46.35c52.72 0 95.46 42.834 95.46 95.672" fill="#FFF" mask="url(#b)"/></g><path d="M185.67 96.154c0 49.933-40.389 90.41-90.21 90.41-49.822 0-90.21-40.477-90.21-90.41 0-49.932 40.388-90.41 90.21-90.41 49.821 0 90.21 40.478 90.21 90.41" fill="#F18C8A"/><path d="M171.664 96.154c0 42.18-34.118 76.374-76.204 76.374-42.087 0-76.205-34.194-76.205-76.374 0-42.18 34.118-76.374 76.205-76.374 42.086 0 76.204 34.194 76.204 76.374" fill="#E83F3C"/><path d="M98.181 15.488a3.843 3.843 0 0 1-5.443 0 3.863 3.863 0 0 1 0-5.456 3.843 3.843 0 0 1 5.443 0 3.863 3.863 0 0 1 0 5.456" fill="#FCDA91"/><path d="M92.337 15.015a3.804 3.804 0 0 0 .873.875l5.372-5.385a3.889 3.889 0 0 0-.873-.875l-5.372 5.385z" fill="#F9B423"/><path d="M98.181 182.27a3.843 3.843 0 0 1-5.443 0 3.863 3.863 0 0 1 0-5.456 3.844 3.844 0 0 1 5.443 0 3.863 3.863 0 0 1 0 5.455" fill="#FCDA91"/><path d="M92.337 181.797a3.84 3.84 0 0 0 .873.875l5.372-5.385a3.893 3.893 0 0 0-.873-.874l-5.372 5.384z" fill="#F9B423"/><path d="M40.473 37.185a3.853 3.853 0 0 1-3.849 3.857 3.853 3.853 0 0 1-3.849-3.857 3.853 3.853 0 0 1 3.849-3.858 3.853 3.853 0 0 1 3.849 3.858" fill="#FCDA91"/><path d="M36.007 40.992a3.921 3.921 0 0 0 1.234 0v-7.615a3.886 3.886 0 0 0-1.234 0v7.615z" fill="#F9B423"/><path d="M158.144 155.117a3.853 3.853 0 0 1-3.849 3.858 3.853 3.853 0 0 1-3.849-3.858 3.853 3.853 0 0 1 3.85-3.857 3.853 3.853 0 0 1 3.848 3.857" fill="#FCDA91"/><path d="M153.678 158.925a3.879 3.879 0 0 0 1.234 0v-7.615a3.882 3.882 0 0 0-1.234 0v7.615z" fill="#F9B423"/><path d="M14.975 93.423a3.863 3.863 0 0 1 0 5.456 3.843 3.843 0 0 1-5.443 0 3.863 3.863 0 0 1 0-5.456 3.843 3.843 0 0 1 5.443 0" fill="#FCDA91"/><path d="M14.504 99.28a3.872 3.872 0 0 0 .872-.874l-5.373-5.385a3.874 3.874 0 0 0-.872.875l5.373 5.384z" fill="#F9B423"/><path d="M181.387 93.423a3.863 3.863 0 0 1 0 5.456 3.843 3.843 0 0 1-5.443 0 3.864 3.864 0 0 1 0-5.456 3.843 3.843 0 0 1 5.443 0" fill="#FCDA91"/><path d="M180.916 99.28a3.8 3.8 0 0 0 .873-.874l-5.373-5.385a3.842 3.842 0 0 0-.873.875l5.373 5.384z" fill="#F9B423"/><path d="M36.624 151.26a3.853 3.853 0 0 1 3.849 3.857 3.854 3.854 0 0 1-3.85 3.858 3.853 3.853 0 0 1-3.848-3.858 3.853 3.853 0 0 1 3.849-3.857" fill="#FCDA91"/><path d="M40.423 155.736a3.91 3.91 0 0 0 0-1.237h-7.598a3.906 3.906 0 0 0 0 1.237h7.598z" fill="#F9B423"/><path d="M154.295 33.327a3.853 3.853 0 0 1 3.849 3.857 3.854 3.854 0 0 1-3.849 3.858 3.853 3.853 0 0 1-3.849-3.858 3.853 3.853 0 0 1 3.849-3.857" fill="#FCDA91"/><path d="M158.094 37.803a3.9 3.9 0 0 0 0-1.237h-7.598a3.912 3.912 0 0 0 0 1.237h7.598z" fill="#F9B423"/><g transform="translate(26 26.132)"><mask id="d" fill="#fff"><use xlink:href="#c"/></mask><use fill="#35DFCF" xlink:href="#c"/><g mask="url(#d)"><g transform="translate(0 26.868)"><path d="M115.188 49.835c4.221 1.681 5.623 6.36 5.471 10.603-.153 4.262-2.25 8.318-5.582 10.903a14.46 14.46 0 0 1-2.625 1.606c.041.433.061.87.061 1.313 0 7.583-6.157 13.731-13.74 13.731-7.435 0-13.492-5.91-13.729-13.288l-14.398.224v.002-.002l-11.216-.174c.001.06-.022.116-.022.176 0 7.584-6.148 13.731-13.732 13.731s-13.73-6.147-13.73-13.73c0-.306.025-.604.045-.904a14.45 14.45 0 0 1-5.767-2.685c-3.33-2.585-5.428-6.64-5.58-10.903-.152-4.243 1.25-8.922 5.472-10.603 2.105-.838 4.4-1.077 6.555-1.77 2.157-.695 4.31-2.014 5.091-4.14.728-1.982.102-4.209-.857-6.089-.958-1.88-2.247-3.6-2.959-5.587-1.05-2.932-.718-6.304.777-9.036 1.496-2.732 4.107-4.809 7.07-5.77 1.43-.465 2.933-.685 4.356-1.17a7.625 7.625 0 0 0 3.03-1.886c1.037-1.046 1.09-2.487 1.235-3.89C50.414 4.713 55.102 0 60.884 0h19.718c5.704 0 10.36 4.592 10.47 10.296l.037 1.993c.15.778.418 1.508 1.016 2.11a7.597 7.597 0 0 0 3.03 1.88c1.423.486 2.926.702 4.356 1.166 2.963.962 5.573 3.036 7.07 5.77 1.495 2.731 1.828 6.102.777 9.035-.713 1.986-2 3.706-2.96 5.586-.958 1.88-1.584 4.108-.856 6.09.78 2.125 2.933 3.444 5.09 4.138 2.157.695 4.451.933 6.556 1.771zM42.709 21.227s-6.211.336-5.957 6.66" fill="#415EA8"/><path d="M42.709 21.227s-6.211.336-5.957 6.66" stroke="#FFF" stroke-width=".931" stroke-linecap="round"/><path d="M37.668 30.382a.507.507 0 1 1-1.013-.001.507.507 0 0 1 1.013.001M25.932 65.89a.7.7 0 1 1-1.4 0 .7.7 0 0 1 1.4 0M63.215 2.571a.7.7 0 1 1-1.402.001.7.7 0 0 1 1.402 0m-2.635-.001s-6.592.59-6.781 5.85" fill="#415EA8"/><path d="M60.58 2.571s-6.592.59-6.781 5.85" stroke="#FFF" stroke-width=".931" stroke-linecap="round"/><path d="M27.118 53.733s-6.1 1.97-2.788 10.268" fill="#415EA8"/><path d="M27.118 53.733s-6.1 1.97-2.788 10.268" stroke="#FFF" stroke-width=".931" stroke-linecap="round"/><path d="M52.39 64.02c-.275 1.02-.129 2.313.79 2.834.822.466 1.848.106 2.72-.26 3.52-1.472 7.041-2.947 10.561-4.421.643-.27 1.305-.551 1.782-1.06.834-.89.901-2.232.92-3.452.012-.787.022-1.59-.217-2.34-.24-.75-.777-1.45-1.532-1.674-.754-.223-1.7.185-1.883.95-.099.414.024.848-.006 1.272-.059.815-.688 1.5-1.42 1.865-.733.364-1.563.468-2.373.58-1.92.265-3.864.612-5.595 1.485-1.73.873-3.244 2.349-3.748 4.22" fill="#415EA8"/><path d="M70.65 54.689c-8.663 0-16.446-7.022-16.446-15.686l-1.522-16.001h35.935l-1.522 16c0 8.665-7.783 15.687-16.446 15.687" fill="#FFD2F6"/><path fill="#D3ADCC" d="M70.306 24.557V23h-2.35l.01 1.556z"/><path d="M63.213 45.358c.415-.836 1.437-1.212 2.37-1.202.937.01 1.838.32 2.756.498a9.648 9.648 0 0 0 5.377-.519c.769-.306 1.517-.72 2.34-.811.825-.091 1.779.254 2.063 1.032.255.7-.107 1.472-.546 2.073-1.275 1.752-3.27 2.922-5.393 3.354-2.123.43-4.36.151-6.382-.622-.81-.31-1.613-.715-2.167-1.382-.554-.666-.803-1.645-.418-2.42" fill="#FFF"/><mask id="f" fill="#fff"><use xlink:href="#e"/></mask><path fill="#1CDFCF" mask="url(#f)" d="M52.682 23.065h35.935V16.03H52.682z"/><path fill="#FFF" mask="url(#f)" d="M52.682 21.227h35.935v-3.042H52.682zm15.657 23.412c-.918-.176-1.82-.487-2.755-.497a3.355 3.355 0 0 0-1.027.148c0 .714.458 1.339 1.135 1.564 1.892.627 5.832 1.505 9.34-.463a1.9 1.9 0 0 0 .95-1.44l.075-.641c-.824.09-1.572.504-2.341.812a9.656 9.656 0 0 1-5.377.517"/><path d="M56.295 35.179a4.12 4.12 0 1 1-8.24-.002 4.12 4.12 0 0 1 8.24.002" fill="#FFD2F6" mask="url(#f)"/><path d="M56.018 32.716l3.181.058c5.437.097 9.897-4.284 9.897-9.722l-16.414-.051.69 7.266a2.707 2.707 0 0 0 2.646 2.449" fill="#415EA8" mask="url(#f)"/><path d="M69.096 23.052s1.805 5.016-.547 7.967c-.385.484-.03 1.199.588 1.199h15.024a3.933 3.933 0 0 0 3.917-3.563l.54-5.654-19.522.05z" fill="#415EA8" mask="url(#f)"/><path d="M79.84 29.992a.668.668 0 1 1-1.336.002.668.668 0 0 1 1.337-.002" fill="#FFF" mask="url(#f)"/><path d="M81.011 29.964s3.993.725 4.85-2.837" stroke="#FFF" stroke-width=".931" stroke-linecap="round" mask="url(#f)"/><path fill="#D3ADCC" mask="url(#f)" d="M53.468 31.269l.714 7.506-1.03.403-.47-8.086z"/><path d="M85.067 35.179a4.12 4.12 0 1 0 8.239-.001 4.12 4.12 0 0 0-8.239 0" fill="#FFD2F6" mask="url(#f)"/><path fill="#D3ADCC" mask="url(#f)" d="M87.893 31.269l-.714 7.506 1.031.403.468-8.086z"/><path d="M54.678 24.992l.477 4.563" stroke="#FFF" stroke-width=".931" stroke-linecap="round" mask="url(#f)"/><path d="M88.469 23.001l-19.372.051s.214.603.398 1.505h18.974v-1.556zm-19.5 1.556c.076-.491.128-.991.128-1.505L52.683 23l.148 1.556h16.138z" fill="#2C4375" mask="url(#f)"/><path fill="#FFD2F6" mask="url(#f)" d="M67.45 61.708h6.218v-7.339H67.45zm-2.77-24.823c-.068-.128-3.792-2.564-6.845.844l-1.41-.422.51-1.662s.725-.397.9-.453c.175-.057 2.044-.963 2.271-.963.226 0 2.102-.723 2.183-.475.081.248 1.147.53 1.152.87.006.34 1.24 2.26 1.24 2.26"/><path d="M67.525 44.517l.935-.966a.77.77 0 0 1 .96-.121l.448.275c.293.18.661.187.96.017l.45-.256a.772.772 0 0 1 1.03.252l.515.799s-2.183.763-5.298 0m.455 5.349s.12 1.296 2.24 1.296c1.26.001 2.15-1.03 2.042-1.296 0 0-2.893.097-4.456 0" fill="#E6294B" mask="url(#f)"/><path d="M69.314 43.805s-.532-.256-.925.28" stroke="#FFF" stroke-width=".19" stroke-linecap="round" stroke-linejoin="round" mask="url(#f)"/><path d="M71.024 36.468c-.099-.287-.259-.55-.503-.725-.35-.253-.899-.256-1.178.076-.243.29-.215.71-.21 1.09a5.55 5.55 0 0 1-.344 1.959c-.212.579-.892 1.106-1.053 1.585-.363 1.08.966 1.686 2.014 1.462.442-.093.866-.358 1.066-.763.292.128.6.259.917.236.318-.024.645-.257.656-.575.018-.495-.488-.507-.69-.822-.332-.512-.466-1.242-.509-1.84-.03-.431-.004-.868-.07-1.294a2.399 2.399 0 0 0-.096-.39" fill="#E6294B" mask="url(#f)"/><path d="M62.107 39.204a3.145 3.145 0 0 1-3.136-3.136v-.09a3.145 3.145 0 0 1 3.136-3.135 3.144 3.144 0 0 1 3.135 3.134v.091a3.144 3.144 0 0 1-3.135 3.136" fill="#FFF" mask="url(#f)"/><path d="M64.705 36.024a2.597 2.597 0 1 1-5.194 0 2.597 2.597 0 0 1 5.194 0" fill="#415EA8" mask="url(#f)"/><path d="M65.362 32.014c-1.24-.432-4.391-1.185-7.178.983-.652.508-1.551.563-2.28.174l-.732-.388c-.252-.134-.251-.496.004-.62 1.816-.883 7.35-3.697 10.352-.401.108.119-.014.305-.166.252" fill="#2C4375" mask="url(#f)"/><path d="M61.721 34.988a.552.552 0 1 1-1.103 0 .552.552 0 0 1 1.103 0m-.601.776c.172.053.248.228.124.472-.148.29-.926.526-.96.049-.008-.13.069-.252.17-.332a1.2 1.2 0 0 1 .347-.168.513.513 0 0 1 .319-.021" fill="#FFF" mask="url(#f)"/><path d="M57.187 39.84l1.772-.34a.11.11 0 0 1 .13.134l-.275 1.193c-.023.105.1.18.18.11.398-.346 1.132-.974 1.222-.99.093-.015.183 1.134.224 1.728.007.107.148.142.205.05l.9-1.466a.109.109 0 0 0-.034-.151l-2.694-1.733a.113.113 0 0 0-.129.007l-1.59 1.263c-.09.072-.024.217.09.195" fill="#E6294B" mask="url(#f)"/><path d="M78.219 39.204a3.145 3.145 0 0 0 3.136-3.136v-.09a3.145 3.145 0 0 0-3.136-3.135 3.144 3.144 0 0 0-3.135 3.134v.091a3.145 3.145 0 0 0 3.135 3.136" fill="#FFF" mask="url(#f)"/><path d="M75.622 36.024a2.597 2.597 0 1 0 5.193 0 2.597 2.597 0 0 0-5.193 0" fill="#415EA8" mask="url(#f)"/><path d="M74.964 32.014c1.24-.432 4.392-1.185 7.178.983.652.508 1.55.563 2.28.174l.733-.388c.25-.134.25-.496-.005-.62-1.815-.883-7.35-3.697-10.351-.401-.108.119.013.305.165.252" fill="#2C4375" mask="url(#f)"/><path d="M78.605 34.988a.551.551 0 1 0 1.102.002.551.551 0 0 0-1.102-.002m.601.776c-.171.053-.248.228-.123.472.148.29.925.526.958.049.009-.13-.067-.252-.17-.332a1.2 1.2 0 0 0-.346-.168.513.513 0 0 0-.32-.021" fill="#FFF" mask="url(#f)"/><path d="M83.138 39.84l-1.772-.34a.11.11 0 0 0-.129.134l.274 1.193c.024.105-.099.18-.18.11-.398-.346-1.132-.974-1.222-.99-.093-.015-.183 1.134-.224 1.728a.11.11 0 0 1-.204.05l-.9-1.466a.11.11 0 0 1 .033-.151l2.694-1.733a.113.113 0 0 1 .13.007l1.59 1.263c.091.072.023.217-.09.195" fill="#E6294B" mask="url(#f)"/><path d="M65.323 130.046l-8.681-4.384-8.147 3.179-.102.005-29.869 16.048c-.478.208-.948.45-1.376.734l-.027.012-.001.003a7.338 7.338 0 0 0-1.797 1.666c-2.247 2.977-1.138 8.288-.435 11.743l6.784 33.317 7.865.229 1.012-34.793c.001-.009.165-.018.166-.027L65.323 145.1v-15.054z" fill="#FFD2F6" mask="url(#f)"/><path d="M38.966 138.058l-11.993 6.148" stroke="#FFF" stroke-width="1.441" stroke-linecap="round" mask="url(#f)"/><path d="M73.688 130.046l8.178-4.384 7.896 3.179-.024.005 29.806 16.048c.48.208.917.45 1.345.734l.012.012-.007.003a7.32 7.32 0 0 1 1.793 1.666c2.247 2.977 1.136 8.288.433 11.743l-6.785 33.317-7.866.229-1.01-34.793c-.002-.009.336-.018.334-.027L73.688 145.1v-15.054z" fill="#FFD2F6" mask="url(#f)"/><path d="M99.04 138.058l11.994 6.148" stroke="#FFF" stroke-width="1.441" stroke-linecap="round" mask="url(#f)"/><path d="M94.005 61.708l5.828-9.487m-52.476 9.487l-5.827-9.487" stroke="#FFF" stroke-width=".931" stroke-linecap="round" mask="url(#f)"/><path fill="#FFD2F6" mask="url(#f)" d="M57.441 60.831L34.727 24.59l-11.24-.21.095 2.77 27.14 47.942z"/><path fill="#2C4375" mask="url(#f)" d="M46.485 18.985l-2.239.436-.703-3.612 2.24-.436z"/><path d="M20.146 17.57l-1.357 3.018a2.47 2.47 0 0 0 1.74 3.431l2.133.456-2.516-6.905z" fill="#D3ADCC" mask="url(#f)"/><path fill="#2C4375" mask="url(#f)" d="M40.423 20.228L16.637 24.86l-.728-3.733 23.787-4.632z"/><path fill="#415EA8" mask="url(#f)" d="M19.656 32.407l-5.328 1.038-3.78-19.408L15.876 13zm26.129-5.088l-5.328 1.038-3.78-19.409 5.328-1.038z"/><path fill="#2C4375" mask="url(#f)" d="M12.79 25.547l-2.24.437-.703-3.613 2.239-.435z"/><path fill="#2C4375" mask="url(#f)" d="M12.79 25.547l-2.24.437-.703-3.613 2.239-.435z"/><path d="M21.497 15.566l10.936-2.13a1.708 1.708 0 0 1 1.979 1.24l.682 5.538a4.072 4.072 0 0 1-1.063 3.928l-.743.739a7.01 7.01 0 0 1-7.75 1.458l-1.22-.531a4.071 4.071 0 0 1-2.368-2.953l-1.804-5.284a1.71 1.71 0 0 1 1.35-2.005" fill="#FFD2F6" mask="url(#f)"/><path d="M34.607 23.407a4.05 4.05 0 0 1-.576.734l-.743.74a7.013 7.013 0 0 1-7.75 1.458l-1.219-.532a4.026 4.026 0 0 1-.785-.457l.623 2.701a4 4 0 0 0 .673.381l1.218.532a7.014 7.014 0 0 0 7.751-1.458l.743-.74c.396-.394.698-.859.901-1.362l-.358-1.088c-.109-.33-.232-.414-.478-.909" fill="#D3ADCC" mask="url(#f)"/><path fill="#FFD2F6" mask="url(#f)" d="M83.616 60.831L106.33 24.59l11.24-.21-.095 2.77-27.141 47.94z"/><path fill="#2C4375" mask="url(#f)" d="M94.571 18.985l2.239.436.704-3.612-2.239-.436z"/><path d="M120.91 17.57l1.358 3.018a2.472 2.472 0 0 1-1.74 3.431l-2.133.456 2.516-6.905z" fill="#D3ADCC" mask="url(#f)"/><path fill="#2C4375" mask="url(#f)" d="M100.633 20.228l23.788 4.633.726-3.733-23.785-4.632z"/><path fill="#415EA8" mask="url(#f)" d="M121.401 32.407l5.328 1.038 3.78-19.408L125.181 13zm-26.129-5.088l5.328 1.038 3.78-19.409-5.328-1.038z"/><path fill="#2C4375" mask="url(#f)" d="M128.267 25.547l2.24.437.703-3.613-2.24-.435z"/><path fill="#2C4375" mask="url(#f)" d="M128.267 25.547l2.24.437.703-3.613-2.24-.435z"/><path d="M119.56 15.566l-10.936-2.13a1.708 1.708 0 0 0-1.979 1.24l-.683 5.538a4.072 4.072 0 0 0 1.064 3.928l.742.739a7.011 7.011 0 0 0 7.751 1.458l1.22-.531a4.071 4.071 0 0 0 2.368-2.953l1.804-5.284a1.71 1.71 0 0 0-1.352-2.005" fill="#FFD2F6" mask="url(#f)"/><path d="M106.45 23.407c.163.263.352.511.576.734l.742.74a7.015 7.015 0 0 0 7.75 1.458l1.22-.532c.28-.123.543-.278.785-.457l-.623 2.701a4.008 4.008 0 0 1-.674.381l-1.218.532a7.013 7.013 0 0 1-7.75-1.458l-.743-.74a4.047 4.047 0 0 1-.901-1.362l.358-1.088c.109-.33.23-.414.478-.909" fill="#D3ADCC" mask="url(#f)"/><path d="M36.964 43.31l4.98 8.91m61.536-8.91l-4.98 8.91" stroke="#FFF" stroke-width="1.441" stroke-linecap="round" mask="url(#f)"/><path d="M84.97 106.707H56.328l-7.605-42.89 7.004-2.434a45.44 45.44 0 0 1 29.78-.015l7.067 2.448-7.604 42.891z" fill="#FFD2F6" mask="url(#f)"/><path d="M64.972 70.58s5.26.786 5.317 5.197c0 0 .292-4.9 5.552-4.9" stroke="#D3ADCC" stroke-width=".761" stroke-linecap="round" stroke-linejoin="round" mask="url(#f)"/><path d="M77.409 136.536s5.152-5.997 13.665-7.695l.108-2.663-8.175-.516-5.598 3.816-1.33 5.958 1.33 1.1zm-14.571 0s-5.151-5.997-13.664-7.695l-.108-2.663 8.174-.516 5.598 3.816 1.33 5.958-1.33 1.1z" fill="#1AB5A6" mask="url(#f)"/><path d="M91.182 123.927v2.25a15.022 15.022 0 0 0-8.51 3.02 15.068 15.068 0 0 0-5.263 7.339l-2.377 7.222a2.738 2.738 0 0 1-2.6 1.882h-4.924a2.738 2.738 0 0 1-2.632-1.984l-2.039-7.12a15.055 15.055 0 0 0-5.262-7.338 15.02 15.02 0 0 0-8.51-3.02v-2.251a6.776 6.776 0 0 1 6.776-6.775h28.565a6.776 6.776 0 0 1 6.776 6.775" fill="#1CDFCF" mask="url(#f)"/><path fill="#1AB5A6" mask="url(#f)" d="M65.88 128.516h1.155v-12.547H65.88z"/><path fill="#FFF" mask="url(#f)" d="M65.88 129.352h1.155v-.836H65.88z"/><path fill="#1AB5A6" mask="url(#f)" d="M73.409 128.516h1.156v-12.547h-1.156z"/><path fill="#FFF" mask="url(#f)" d="M73.409 129.352h1.156v-.836h-1.156z"/><path d="M64.93 135.437l1.274 5.345" stroke="#FFF" stroke-width=".931" stroke-linecap="round" mask="url(#f)"/><path d="M63.478 132.846a.506.506 0 1 0 1.012 0 .506.506 0 0 0-1.012 0" fill="#FFF" mask="url(#f)"/><path d="M87.664 72.003l-.487 22.541-2.205 12.16H56.33l-2.213-12.16-.48-22.54s4.054-5.515 3.803-11.173c0 0 5.643-1.879 8.829-1.628L62.514 71.44l8.137 10.761 8.138-10.768-3.757-12.23c3.179-.25 8.829 1.628 8.829 1.628-.26 5.658 3.803 11.172 3.803 11.172" fill="#1CDFCF" mask="url(#f)"/><path d="M94.765 83.114c0 6.76-5.479 12.237-12.238 12.237-6.759 0-12.238-5.478-12.238-12.237s5.48-12.237 12.238-12.237c6.76 0 12.238 5.478 12.238 12.237" fill="#1CDFCF" mask="url(#f)"/><path d="M90.577 87.991s-1.521 5.218-6.72 3.727m7.986-6.362a.506.506 0 1 1-1.013-.003.506.506 0 0 1 1.013.003z" stroke="#FFF" stroke-width=".931" stroke-linecap="round" mask="url(#f)"/><path d="M46.534 83.114c0 6.76 5.479 12.237 12.238 12.237 6.759 0 12.238-5.478 12.238-12.237s-5.48-12.237-12.238-12.237c-6.76 0-12.238 5.478-12.238 12.237" fill="#1CDFCF" mask="url(#f)"/><path d="M50.722 87.991s1.521 5.218 6.718 3.727m-7.983-6.362a.506.506 0 1 0 1.013-.003.506.506 0 0 0-1.013.003z" stroke="#FFF" stroke-width=".931" stroke-linecap="round" mask="url(#f)"/><path fill="#415EA8" mask="url(#f)" d="M55.093 116.811h30.92V99.512h-30.92z"/><path d="M86.013 103.57L75.091 106c-.31.069-.252.53.068.516l10.854-.413v-2.533zm-30.92 4.333l9.522 1.416c.229.034.215.368-.015.382l-9.506.585v-2.383z" fill="#2C4375" mask="url(#f)"/><path fill="#1AB5A6" mask="url(#f)" d="M55.191 117.152h30.92v-2.156h-30.92z"/></g></g></g><use filter="url(#g)" xlink:href="#h" fill="#000" transform="translate(0 .132)"/></g></svg>