<svg xmlns="http://www.w3.org/2000/svg" xmlns:xlink="http://www.w3.org/1999/xlink" viewBox="0 0 251.99 308.5"><defs><linearGradient id="a" x1="181.96" y1="97.79" x2="186.53" y2="114.84" gradientUnits="userSpaceOnUse"><stop offset="0" stop-color="#007e8a"/><stop offset=".14" stop-color="#027d89"/><stop offset=".2" stop-color="#097987"/><stop offset=".25" stop-color="#167383"/><stop offset=".29" stop-color="#28697d"/><stop offset=".3" stop-color="#29697d"/><stop offset=".47" stop-color="#29667a"/><stop offset=".59" stop-color="#295d71"/><stop offset=".69" stop-color="#284f63"/><stop offset=".75" stop-color="#284155"/><stop offset=".88" stop-color="#283b57"/><stop offset="1" stop-color="#29305b"/></linearGradient><linearGradient id="b" x1="134.06" y1="96.31" x2="139.51" y2="116.67" xlink:href="#a"/></defs><title>ile-scand-1</title><g data-name="Calque 2"><g data-name="Iles validées" style="isolation:isolate"><path fill="#1f4484" d="M88.96 37.8l-50.67 82.94h101.34L88.96 37.8z"/><path fill="#cbe2f6" d="M93.56 54.74l5.11 7.99 1.59-6.44-11.3-18.49-11.15 18.26 2.98 6.67 4.08-7.43 4.99 16.29 3.7-16.85z"/><path fill="#1d1d1b" opacity=".36" style="mix-blend-mode:multiply" d="M89.07 37.98L87.79 54.7l2.52-1.55.32 12.72 2.1-4.35 5.93 40.93 3.29-5.13 1.21 23.42h36.47L89.07 37.98z"/><path fill="#2b519f" style="mix-blend-mode:multiply" d="M64.84 120.74h10.81l32.21-36.58"/><path fill="#2b519f" d="M139.63 37.8l-63.98 82.94h127.96L139.63 37.8z"/><path fill="#cbe2f6" d="M145.88 63.73l14.64 15.54 2.75-10.82-23.64-30.65-21.93 28.43 8.04 3.82 9.49-8.53 6.86 11.28 3.79-9.07z"/><path fill="#1d1d1b" opacity=".36" style="mix-blend-mode:multiply" d="M139.63 37.8l3.12 18.55 2.82-.96 4.72 27.84 1.74-2.97 10.52 40.48h41.06L139.63 37.8z"/><path fill="#79a1bc" style="mix-blend-mode:multiply" d="M14.9 122.93l90.76 185.57 104.27-185.57H14.9z"/><path fill="#79a1bc" style="mix-blend-mode:multiply" d="M128.43 122.93l54 107.1 62.04-107.1H128.43z"/><path fill="#79a1bc" style="mix-blend-mode:multiply" d="M0 123.07l69.23 146.45 79.55-146.45H0z"/><path fill="#79a1bc" style="mix-blend-mode:multiply" d="M77.3 123.07l81.29 171.96 93.4-171.96H77.3z"/><g style="mix-blend-mode:hard-light"><path fill="none" stroke="#752926" stroke-miterlimit="10" stroke-width="2.36" d="M70.05 109.98v10.62"/><path fill="#7cb928" d="M70.05 79.38l-5.21 32.89h10.42l-5.21-32.89z"/></g><g style="mix-blend-mode:hard-light"><path fill="none" stroke="#752926" stroke-miterlimit="10" stroke-width="2.36" d="M45.53 109.98v10.62"/><path fill="#7cb928" d="M45.53 79.38l-5.21 32.89h10.42l-5.21-32.89z"/></g><g style="mix-blend-mode:hard-light"><path fill="none" stroke="#752926" stroke-miterlimit="10" stroke-width="1.65" d="M92.73 113.15v7.45"/><path fill="#7cb928" d="M92.73 91.69l-3.65 23.07h7.3l-3.65-23.07z"/></g><g style="mix-blend-mode:hard-light"><path fill="none" stroke="#752926" stroke-miterlimit="10" stroke-width="1.41" d="M82.35 114.19v6.35"/><path fill="#7cb928" d="M82.35 95.89l-3.12 19.67h6.24l-3.12-19.67z"/></g><g style="mix-blend-mode:hard-light"><path fill="none" stroke="#752926" stroke-miterlimit="10" stroke-width="1.41" d="M58.1 114.19v6.35"/><path fill="#7cb928" d="M58.1 95.89l-3.12 19.67h6.23L58.1 95.89z"/></g><path d="M119.2 61.68h-13.33a1.54 1.54 0 0 0-1.53 1.53v59.62h16.39V63.21a1.54 1.54 0 0 0-1.53-1.53z" fill="#7db7e5"/><path d="M119.2 61.68h-13.33a1.46 1.46 0 0 0-1.53 1.37v57.36h1.08V80.65c.5-1.14 1.23-2 2.32-2.08a6.16 6.16 0 0 0 5.53-3.27 7.78 7.78 0 0 1 6.39-3.64v48.76h1.08V63.05a1.46 1.46 0 0 0-1.54-1.37z" fill="#7db7e5" opacity=".67" style="mix-blend-mode:multiply"/><path d="M119.66 63.14v-.53c0-.51-.6-.93-1.33-.93h-11.58c-.73 0-1.33.42-1.33.93v15.81s.14-5.13 2.95-5.24 4.29-1.35 4.81-2.23 3-2.77 6.48-2.47v-5.34z" fill="#7db7e5" opacity=".67" style="mix-blend-mode:multiply"/><path fill="none" stroke="#d3e3f5" stroke-linecap="round" stroke-miterlimit="10" stroke-width="1.18" d="M109.01 67.07v9.04m0 2.89v2.52m6.49 12.15v2.53m-6.49 13.73v.97m6.49-31.46v11.01m-6.49 8.47v9.12m7.99-4.2v11.6"/><circle cx="105.93" cy="62.73" r="1.21" fill="#fff"/><circle cx="108.57" cy="62.73" r="1.21" fill="#fff"/><circle cx="111.22" cy="62.73" r="1.21" fill="#fff"/><circle cx="113.86" cy="62.73" r="1.21" fill="#fff"/><circle cx="116.5" cy="62.73" r="1.21" fill="#fff"/><circle cx="119.15" cy="62.73" r="1.21" fill="#fff"/><path fill="#79a1bc" style="mix-blend-mode:multiply" d="M37.36 122.93l28.69 65.46 20.43-32.73 32.15 69.68 55.22-102.41H37.36z"/><path fill="#a7d8f6" d="M0 120.29h244.47v2.78H0z"/><path d="M103.28 46.11a11.22 11.22 0 0 0-19.45 0zm-74.7 0a11.22 11.22 0 0 0-19.45 0zm53.11.18a27.94 27.94 0 0 0-51.41 0zm86.72-36.57a6.49 6.49 0 0 0-11.25 0zm-43.21 0a6.49 6.49 0 0 0-11.25 0zm30.72.1a16.17 16.17 0 0 0-29.74 0zM240 57.55a11.22 11.22 0 0 0-19.45 0zm-74.67 0a11.22 11.22 0 0 0-19.45 0zm53.11.19a27.94 27.94 0 0 0-51.41 0z" fill="#b9e2f9" style="mix-blend-mode:multiply"/><circle cx="103.5" cy="116.4" r="4.84" fill="#fff"/><circle cx="121.59" cy="116.4" r="4.84" fill="#fff"/><circle cx="108.34" cy="117.93" r="3.32" fill="#fff"/><circle cx="116.75" cy="117.93" r="3.32" fill="#fff"/><circle cx="112.87" cy="117.14" r="3.88" fill="#fff"/><path fill="#a7d8f6" d="M0 120.29v15.93l.93-13.15h1.48v3.31l.75-3.31h14.02l.74 6.27.41-4.01.58 16.25.49-18.51h27.96v14.27l.99-9.53.99 17.77.58-22.51h29.69l.9 9.87v-8.65l.83 4.4.9-5.04.99 19.29 1.32-19.87h43.22l1.4 3.95.74-2.01.66 14.09 1.15-16.03h32.5l.74 14.59.41-13.61.66 22.41.58-22.09.91 5.2v-6.5h19.21l.58 3.62.82-3.62h23.26l.74 9.46 1.07-8.96v18.73l1.74-19.23h33.31l.75 1.7.49-1.7 2.14 15.55.36-15.55v-2.78H0z"/><path fill="#752926" d="M196.46 100.62h11.36v17.44h-11.36z"/><path fill="#752926" d="M201.97 106.47l-6.82-6.62 4.51-6.62 8.16 7.39-5.85 5.85z"/><path fill="#1d1d1b" opacity=".4" style="mix-blend-mode:multiply" d="M206.89 100.62h.94v17.44h-.94z"/><path fill="#fff" opacity=".51" style="mix-blend-mode:screen" d="M196.46 115.56h11.37v2.49h-11.37z"/><path d="M205.09 98.3v1.54s-.14.82.58.82 1.22.14 1.22 1.22v16.17" fill="none" stroke="#1d1d1b" stroke-miterlimit="10" stroke-width="1.15" opacity=".4" style="mix-blend-mode:multiply"/><path d="M204.19 97.46v2.39s-.14.82.58.82 1.22.14 1.22 1.22v16.17" fill="none" stroke="#3f3f3f" stroke-miterlimit="10" stroke-width="1.15"/><path fill="none" stroke="#e8ecf8" stroke-linecap="round" stroke-linejoin="round" stroke-width=".84" d="M209.84 102.74l-10.18-9.51-10.19 9.51"/><path fill="none" stroke="#fff" stroke-miterlimit="10" stroke-width=".86" d="M188.64 115.56h14.97m-14.97-2.06v4.56m14.97-4.79v4.79m-1.54-6.31v3.81h-11.9v-3.81a23 23 0 0 1 11.9 0zm-5.94-.77v4.58m-3.07-4.58v4.58m6.28-4.58v4.58"/><path d="M199.94 92.92a.42.42 0 0 0-.57 0l-10.18 9.51a.42.42 0 0 0 .57.61l9.4-8.78-4.16 2.93 1.42 3.43v17.44h5.67V97.7l2.5-.4" fill="#1d1d1b" opacity=".5" style="mix-blend-mode:multiply"/><path fill="#8f282d" d="M150.04 96.12h48.64v21.93h-48.64z"/><path fill="#8f282d" d="M149.71 96.46l24.65-23.02 24.65 23.02"/><path fill="#fff" opacity=".51" style="mix-blend-mode:screen" d="M149.96 115.56h48.72v2.49h-48.72z"/><path fill="url(#a)" d="M175.54 99.51h17.42v13.6h-17.42z"/><path fill="none" stroke="#fff" stroke-miterlimit="10" stroke-width=".61" d="M175.54 99.51h17.42v13.6h-17.42z"/><path fill="none" stroke="#fff" stroke-miterlimit="10" stroke-width=".82" d="M185.99 99.51v13.61"/><path fill="none" stroke="#fff" stroke-miterlimit="10" stroke-width=".61" d="M179.02 99.51v13.61m-3.48-12.5v13.6m17.42-13.6v13.6"/><path fill="none" stroke="#fff" stroke-miterlimit="10" stroke-width=".2" d="M182.51 99.51v13.61m6.96-13.61v13.61m-13.93-9.07h17.42m-17.42 4.53h17.42"/><path fill="#1d2241" d="M169.79 81.89h9.15v9.15h-9.15z"/><path fill="none" stroke="#fff" stroke-miterlimit="10" stroke-width=".61" d="M169.79 81.89h9.15v9.15h-9.15z"/><path fill="none" stroke="#fff" stroke-miterlimit="10" stroke-width=".82" d="M174.36 81.89v9.15"/><path fill="none" stroke="#fff" stroke-miterlimit="10" stroke-width=".2" d="M169.79 86.46h9.14"/><path fill="none" stroke="#e8ecf8" stroke-linecap="round" stroke-linejoin="round" stroke-width="2.3" d="M202.31 99.51l-27.95-26.1-27.95 26.1"/><path d="M161.85 99.27a1 1 0 0 0 1-1.65L153 91.77l-7.39 6.9a1.15 1.15 0 1 0 1.57 1.68L150 97.7v20.36h9.6V98z" fill="#1d1d1b" opacity=".3" style="mix-blend-mode:multiply"/><path fill="none" stroke="#1d1d1b" stroke-miterlimit="10" stroke-width=".45" opacity=".3" style="mix-blend-mode:multiply" d="M193.24 99.51h-18.05"/><path fill="none" stroke="#fff" stroke-miterlimit="10" stroke-width=".83" d="M174.59 98.86h19.24"/><path fill="none" stroke="#fff" stroke-miterlimit="10" stroke-width=".86" d="M155.31 115.56h14.97m-14.97-2.06v4.56m14.97-4.79v4.79m-1.54-6.31v3.81h-11.9v-3.81a23 23 0 0 1 11.9 0zm-5.94-.77v4.58m-3.07-4.58v4.58m6.28-4.58v4.58"/><path fill="#a57751" d="M215.47 120.74H109.65l3.23-2.68h99.97l2.62 2.68z"/><path fill="#785a43" d="M216.96 120.74h-109.1l2.34-1.34h105.23l1.53 1.34z"/><path fill="#a42432" d="M118.72 96.84h36.13v21.22h-36.13z"/><path fill="#a42432" d="M118.24 97.32l18.55-11.06 18.54 11.06"/><path fill="#fff" opacity=".51" style="mix-blend-mode:screen" d="M119.03 115.56h35.25v2.49h-35.25z"/><path fill="url(#b)" d="M123.62 99.11h26.34v14.75h-26.34z"/><path fill="none" stroke="#edf0f9" stroke-miterlimit="10" stroke-width=".72" d="M123.62 99.11h26.34v14.75h-26.34z"/><path fill="none" stroke="#edf0f9" stroke-miterlimit="10" stroke-width=".96" d="M136.79 99.11v15.71"/><path fill="none" stroke="#edf0f9" stroke-miterlimit="10" stroke-width=".72" d="M128.01 99.11v14.76m-4.39-13.8v14.75"/><path fill="none" stroke="#fff" stroke-miterlimit="10" stroke-width=".72" d="M149.96 100.07v14.75"/><path fill="none" stroke="#edf0f9" stroke-miterlimit="10" stroke-width=".24" d="M132.4 99.11v14.76m8.78-14.76v14.76"/><path fill="none" stroke="#edf0f9" stroke-miterlimit="10" stroke-width=".72" d="M145.57 99.11v14.76"/><path fill="none" stroke="#edf0f9" stroke-miterlimit="10" stroke-width=".24" d="M123.62 104.03h26.34"/><path fill="none" stroke="#1d1d1b" stroke-miterlimit="10" stroke-width=".47" opacity=".3" style="mix-blend-mode:multiply" d="M150.29 98.93h-27.01"/><path fill="none" stroke="#c2753b" stroke-miterlimit="10" stroke-width=".96" d="M118.72 96.84v21.22"/><path fill="none" stroke="#edf0f9" stroke-miterlimit="10" stroke-width=".24" d="M123.62 108.95h26.34"/><path fill="none" stroke="#e8ecf8" stroke-miterlimit="10" stroke-width=".86" d="M122.58 98.45h28.41"/><path fill="none" stroke="#c2753b" stroke-miterlimit="10" stroke-width="1.15" d="M154.31 96.84v21.22"/><path fill="none" stroke="#e8ecf8" stroke-linecap="round" stroke-linejoin="round" stroke-width="1.91" d="M157.55 98.45l-20.76-12.38-20.77 12.38"/></g></g></svg>