<svg xmlns="http://www.w3.org/2000/svg" viewBox="0 0 256.52 280.13"><title>ile-cro-1</title><g data-name="Calque 2"><g data-name="Iles validées" style="isolation:isolate"><path d="M140.38 32.46c-10.82 0-17.9 15.32-23.71 32.52S94.91 81.39 94.91 81.39h90.48s-15.49.78-21.3-16.42S151 32.46 140.38 32.46z" fill="#83937c"/><path d="M184.75 81.4c-2.95-.07-15.55-1.28-20.67-16.42-5.81-17.2-13.08-32.52-23.71-32.52V81.4zm.64 0h-.64c.4.01.64 0 .64 0z" opacity=".31" style="mix-blend-mode:multiply" fill="#1d1d1b"/><path d="M95 81.4zM147 68c-5.74-10.27-12.55-19.69-21.4-24-3.4 5.78-6.31 13.2-9 21-5.02 15-17.88 16.31-21 16.39h79.27c-4.21-.07-21-1.16-27.87-13.39z" opacity=".3" style="mix-blend-mode:multiply" fill="#1d1d1b"/><path d="M182.6 44.16c-7.11 0-11.76 11.66-15.57 24.75s-14.3 12.49-14.3 12.49h59.43s-10.18.59-14-12.5-8.58-24.74-15.56-24.74z" fill="#83937c"/><path d="M211.75 81.4c-1.94-.06-10.22-1-13.58-12.5-3.82-13.09-8.59-24.75-15.57-24.75V81.4zm.42 0z" opacity=".31" style="mix-blend-mode:multiply" fill="#1d1d1b"/><path d="M198.66 56.72c-6.3 0-10.42 7.73-13.8 16.4S172.2 81.4 172.2 81.4h52.29a12.79 12.79 0 0 1-12-8.28c-3.41-8.67-7.64-16.4-13.83-16.4z" fill="#4380b0"/><path d="M224.49 81.4c-1.72 0-9.05-.65-12-8.28-3.38-8.67-7.61-16.4-13.8-16.4V81.4z" fill="#1d1d1b" opacity=".31" style="mix-blend-mode:multiply"/><path d="M211.69 81.4zm-58.92 0zm53.14-1.49a12.28 12.28 0 0 1-5-2.71c-4.4-4.4-9.91-8.32-18-8.32S169.4 72.8 165 77.2c-2 2-5.54 3-8.84 3.58a13.14 13.14 0 0 1-3.39.61h58.55a13 13 0 0 1-5.41-1.48z" opacity=".3" style="mix-blend-mode:multiply" fill="#1d1d1b"/><path d="M111.33 41.42C96.7 41.42 87.12 53.94 79.27 68S49.84 81.4 49.84 81.4H172.2s-20.95.6-28.81-13.4-17.69-26.58-32.06-26.58z" fill="#c6c6c4"/><path d="M171.34 81.4c-4-.06-21-1-28-13.41-7.86-14-17.69-26.57-32.06-26.57v40z" fill="#1d1d1b" opacity=".3" style="mix-blend-mode:multiply"/><path d="M161 49c-7.24 0-12 10.13-15.87 21.5a15.21 15.21 0 0 1-14.53 10.9h60.55s-10.37.51-14.26-10.86S168.14 49 161 49z" fill="#4380b0"/><g opacity=".31" style="mix-blend-mode:multiply" fill="#1d1d1b"><path d="M190.73 81.4c-2 0-10.41-.85-13.83-10.86C173 59.17 168.14 49 161 49v32.4z"/><path d="M180.3 70.54c-2.23-6.51-4.78-12.6-7.88-16.63a102.93 102.93 0 0 0-5.39 15 21.4 21.4 0 0 1-2.6 5.78v6.71h29.66c-2.03-.06-10.39-.9-13.79-10.86zm10.85 10.86z"/></g><path fill="#dd9f32" style="mix-blend-mode:multiply" d="M17.14 94.56l90.76 185.57L212.17 94.56H17.14z"/><path fill="#dd9f32" style="mix-blend-mode:multiply" d="M130.67 94.56l54 107.1 62.04-107.1H130.67z"/><path fill="#dd9f32" style="mix-blend-mode:multiply" d="M2.24 94.7l69.24 146.45L151.02 94.7H2.24z"/><path fill="#dd9f32" style="mix-blend-mode:multiply" d="M79.54 94.7l81.29 171.96 93.4-171.96H79.54z"/><path fill="#dd9f32" style="mix-blend-mode:multiply" d="M39.6 94.56l28.69 65.46 20.43-32.73 32.15 69.68 55.22-102.41H39.6z"/><path fill="#5eb237" opacity=".14" style="mix-blend-mode:hard-light" d="M254.23 94.7h-7.6l.08-.14H17.14l.07.14H2.24l69.24 146.45 9.13-16.81 27.29 55.79 32.2-57.32 20.73 43.85 93.4-171.96z"/><path fill="#2096b2" d="M244 90.22H11.32L2.24 94.7h251.99L244 90.22z"/><path fill="#80cde8" d="M244 85.74H12.91l-3.97 2.24 3.16 2.24H244l3.58-2.24-3.58-2.24z"/><path fill="#fbc160" d="M121.03 81.26H29.85l-5.89 4.48h113.78l-16.71-4.48z"/><path fill="#7ebd5c" d="M224.49 81.41H121.03l16.71 4.33h103.47l-16.72-4.33z"/><path fill="#898463" d="M53.74 56.85h14.97v1.7H53.74z"/><path fill="#898463" d="M72.74 58.18l-4.03-1.33v1.7l4.03 1.34v-1.71z"/><path fill="#c1bb99" d="M37.38 50.14h12.74v8.42H37.38z"/><path fill="#a7a280" d="M34.98 58.56h23.25v23.01H34.98zm23.25 0h10.48v23.01H58.23z"/><path fill="#898463" opacity=".54" style="mix-blend-mode:screen" d="M58.23 58.56h2.94v23.01h-2.94z"/><path fill="#898463" d="M68.71 58.56h10.65v23H68.71z"/><path fill="#c1bb99" d="M79.36 58.56H91.8v23.01H79.36z"/><path d="M40.64 52.53a2.4 2.4 0 1 0-4.79 0v6h9.82l-5-6z" fill="#898463" opacity=".3" style="mix-blend-mode:multiply"/><path fill="#898463" d="M50.12 53.23h3.62v5.33h-3.62z"/><path fill="#c1bb99" d="M34.98 52.54h4.79v6.02h-4.79z"/><circle cx="37.38" cy="52.53" r="2.4" fill="#c1bb99"/><path fill="#898463" opacity=".3" style="mix-blend-mode:multiply" d="M91.79 58.55l-12.43 23h12.43v-23zm-33.56 0L45.71 81.56h12.52V58.55z"/><path fill="none" stroke="#fff" stroke-miterlimit="10" stroke-width=".38" opacity=".3" style="mix-blend-mode:screen" d="M34.98 63.03h33.73"/><path fill="none" stroke="#1d1d1b" stroke-miterlimit="10" stroke-width=".38" opacity=".3" style="mix-blend-mode:multiply" d="M34.98 63.32h33.73"/><path fill="none" stroke="#fff" stroke-miterlimit="10" stroke-width=".38" opacity=".3" style="mix-blend-mode:screen" d="M79.36 63.13h12.43"/><path fill="none" stroke="#1d1d1b" stroke-miterlimit="10" stroke-width=".38" opacity=".3" style="mix-blend-mode:multiply" d="M79.36 63.42h12.43"/><path fill="none" stroke="#fff" stroke-miterlimit="10" stroke-width=".38" opacity=".3" style="mix-blend-mode:screen" d="M68.71 63.03l10.65.1"/><path fill="none" stroke="#1d1d1b" stroke-miterlimit="10" stroke-width=".38" opacity=".3" style="mix-blend-mode:multiply" d="M68.71 63.32l10.65.1"/><path fill="none" stroke="#fff" stroke-miterlimit="10" stroke-width=".38" opacity=".3" style="mix-blend-mode:screen" d="M34.98 70.14h33.73"/><path fill="none" stroke="#1d1d1b" stroke-miterlimit="10" stroke-width=".38" opacity=".3" style="mix-blend-mode:multiply" d="M34.98 70.43h33.73"/><path fill="none" stroke="#fff" stroke-miterlimit="10" stroke-width=".38" opacity=".3" style="mix-blend-mode:screen" d="M79.36 70.24h12.43"/><path fill="none" stroke="#1d1d1b" stroke-miterlimit="10" stroke-width=".38" opacity=".3" style="mix-blend-mode:multiply" d="M79.36 70.53h12.43"/><path fill="none" stroke="#fff" stroke-miterlimit="10" stroke-width=".38" opacity=".3" style="mix-blend-mode:screen" d="M68.71 70.14l10.65.1"/><path fill="none" stroke="#1d1d1b" stroke-miterlimit="10" stroke-width=".38" opacity=".3" style="mix-blend-mode:multiply" d="M68.71 70.43l10.65.1"/><path fill="none" stroke="#fff" stroke-miterlimit="10" stroke-width=".38" opacity=".3" style="mix-blend-mode:screen" d="M34.98 77.25h33.73"/><path fill="none" stroke="#1d1d1b" stroke-miterlimit="10" stroke-width=".38" opacity=".3" style="mix-blend-mode:multiply" d="M34.98 77.54h33.73"/><path fill="none" stroke="#fff" stroke-miterlimit="10" stroke-width=".38" opacity=".3" style="mix-blend-mode:screen" d="M79.36 77.35h12.43"/><path fill="none" stroke="#1d1d1b" stroke-miterlimit="10" stroke-width=".38" opacity=".3" style="mix-blend-mode:multiply" d="M79.36 77.64h12.43"/><path fill="none" stroke="#fff" stroke-miterlimit="10" stroke-width=".38" opacity=".3" style="mix-blend-mode:screen" d="M68.71 77.25l10.65.1"/><path fill="none" stroke="#1d1d1b" stroke-miterlimit="10" stroke-width=".38" opacity=".3" style="mix-blend-mode:multiply" d="M68.71 77.54l10.65.1"/><path fill="none" stroke="#fff" stroke-miterlimit="10" stroke-width=".38" opacity=".3" style="mix-blend-mode:screen" d="M34.98 58.75h33.73m10.65 0h12.43m-23.08 0h10.65"/><path fill="#898463" d="M37.17 46.08h.21v4.06h-.21z"/><path fill="#6dc9f3" d="M35.37 46.08h1.8v1.13h-1.8z"/><path fill="#1d1d1b" opacity=".3" style="mix-blend-mode:multiply" d="M35.37 47.2l1.8-1.12v1.12h-1.8z"/><path fill="#a7a280" opacity=".5" style="mix-blend-mode:multiply" d="M88.62 74.75l1.37 1.03 2.05 5.52-2.44.2h-5.27l-3.23.01-4.95-.01-3.1-.07 3.1-7.92h5.07l1.56-2.73h3.89l1.95 3.97z"/><path fill="#a7a280" d="M86.46 74.75l1.37 1.03 2.04 5.52-2.43.2h-5.28l-3.22.01-4.96-.01-3.09-.07 3.09-7.92h5.08l1.55-2.73h3.89l1.96 3.97z"/><path fill="#fff" opacity=".3" style="mix-blend-mode:screen" d="M73.98 73.51l1.62 1.15 2.81.41 1.83-1-1.18-.56h-5.08zm10.52-2.73l-.15.85h-1.97l-1.77-.85h3.89z"/><path fill="#1d1d1b" opacity=".49" style="mix-blend-mode:multiply" d="M73.98 81.5l-3.09-.07 3.09-7.92 1.62 1.15-1.62 6.84z"/><path fill="#a7a280" d="M80.24 74.07l1.92 7.43-2.63.02-.59-.01-.53-6.44 1.83-1z"/><path fill="#1d1d1b" opacity=".3" style="mix-blend-mode:multiply" d="M78.41 75.07l.53 6.44-4.96-.01 1.62-6.84 2.81.41z"/><path fill="#1d1d1b" opacity=".49" style="mix-blend-mode:multiply" d="M82.38 71.63L81.23 74l1.34 7.48-.41.02-1.92-7.43-1.18-.56 1.55-2.73 1.77.85z"/><path fill="#1d1d1b" opacity=".3" style="mix-blend-mode:multiply" d="M84.35 71.63l1.04 3.16-1.84.02h-1.06l-.25 4.8L81.23 74l1.15-2.37h1.97z"/><path fill="#fff" opacity=".3" style="mix-blend-mode:screen" d="M87.44 74.76l.39 1.02-1.55.6-2.24-.31-1.55-1.26 2.47-.02 2.48-.03z"/><path fill="#1d1d1b" opacity=".49" style="mix-blend-mode:multiply" d="M82.49 74.81l-.33 6.69h1.38l.5-5.43-1.55-1.26z"/><path fill="#1d1d1b" opacity=".3" style="mix-blend-mode:multiply" d="M84.04 76.07l2.24.31 1.16 5.12h-3.9l.5-5.43z"/><path fill="#a7a280" d="M87.83 75.78l-1.55.6 1.16 5.12 2.43-.2-2.04-5.52z"/><path fill="#a7a280" opacity=".5" style="mix-blend-mode:multiply" d="M38.94 76.34l-1.13.85-1.68 4.55 2.01.17h3.2l1.14-.01 2.66.02 4.07-.01 2.55-.06-2.55-6.52h-4.17l-1.28-2.25h-3.21l-1.61 3.26z"/><path fill="#a7a280" d="M37.83 76.34l-1.13.85-1.68 4.55 2.01.17h3.2l1.14-.01 2.65.02 4.08-.01 2.55-.06-2.55-6.52h-4.17l-1.28-2.25h-3.21l-1.61 3.26z"/><path fill="#fff" opacity=".3" style="mix-blend-mode:screen" d="M48.1 75.33l-1.33.94-2.31.34-1.51-.82.98-.46h4.17zm-8.66-2.25l.13.69h1.62l1.46-.69h-3.21z"/><path fill="#1d1d1b" opacity=".49" style="mix-blend-mode:multiply" d="M48.1 81.91l2.55-.06-2.55-6.52-1.33.94 1.33 5.64z"/><path fill="#a7a280" d="M42.95 75.79l-1.58 6.11 2.17.02h.48l.44-5.31-1.51-.82z"/><path fill="#1d1d1b" opacity=".3" style="mix-blend-mode:multiply" d="M44.46 76.61l-.44 5.31 4.08-.01-1.33-5.64-2.31.34z"/><path fill="#1d1d1b" opacity=".49" style="mix-blend-mode:multiply" d="M41.19 73.77l.94 1.96-1.1 6.16.34.01 1.58-6.11.98-.46-1.28-2.25-1.46.69z"/><path fill="#1d1d1b" opacity=".3" style="mix-blend-mode:multiply" d="M39.57 73.77l-.86 2.61 1.52.01.87.01.2 3.95.83-4.62-.94-1.96h-1.62z"/><path fill="#fff" opacity=".3" style="mix-blend-mode:screen" d="M37.03 76.36l-.33.83 1.28.5 1.85-.26 1.27-1.03-2.03-.02-2.04-.02z"/><path fill="#1d1d1b" opacity=".49" style="mix-blend-mode:multiply" d="M41.1 76.4l.27 5.5-1.14.01-.4-4.48 1.27-1.03z"/><path fill="#1d1d1b" opacity=".3" style="mix-blend-mode:multiply" d="M39.83 77.43l-1.85.26-.95 4.22h3.2l-.4-4.48z"/><path fill="#a7a280" d="M36.7 77.19l1.28.5-.95 4.22-2.01-.17 1.68-4.55z"/><path fill="#c3b86e" style="mix-blend-mode:multiply" d="M36.26 65.57h1.92v2.34h-1.92z"/><path fill="#c3b86e" style="mix-blend-mode:multiply" d="M36.61 65.92h1.57v1.99h-1.57zm3.29-.35h1.92v2.34H39.9z"/><path fill="#c3b86e" style="mix-blend-mode:multiply" d="M40.25 65.92h1.57v1.99h-1.57zm6.91-.35h1.92v2.34h-1.92z"/><path fill="#c3b86e" style="mix-blend-mode:multiply" d="M47.51 65.92h1.57v1.99h-1.57zm3.31-.35h1.92v2.34h-1.92z"/><path fill="#c3b86e" style="mix-blend-mode:multiply" d="M51.17 65.92h1.57v1.99h-1.57zm10.9-.35h1.92v2.34h-1.92z"/><path fill="#c3b86e" style="mix-blend-mode:multiply" d="M62.42 65.92h1.57v1.99h-1.57zm3.3-.35h1.92v2.34h-1.92z"/><path fill="#c3b86e" style="mix-blend-mode:multiply" d="M66.07 65.92h1.57v1.99h-1.57zm-7.43-.35h.7v2.34h-.7z"/><path fill="#c3b86e" style="mix-blend-mode:multiply" d="M58.86 65.92h.48v1.99h-.48zm1.1-.35h.7v2.34h-.7z"/><path fill="#c3b86e" style="mix-blend-mode:multiply" d="M60.21 65.92h.45v1.99h-.45zm20.6-.35h1.92v2.34h-1.92z"/><path fill="#c3b86e" style="mix-blend-mode:multiply" d="M81.16 65.92h1.57v1.99h-1.57zm3.26-.35h1.92v2.34h-1.92z"/><path fill="#c3b86e" style="mix-blend-mode:multiply" d="M84.77 65.92h1.57v1.99h-1.57zm3.27-.35h1.92v2.34h-1.92z"/><path fill="#c3b86e" style="mix-blend-mode:multiply" d="M88.39 65.92h1.57v1.99h-1.57zm-18.86-.35h1.38v2.34h-1.38z"/><path fill="#c3b86e" style="mix-blend-mode:multiply" d="M69.92 65.92h.99v1.99h-.99zm2.2-.35h1.38v2.34h-1.38z"/><path fill="#c3b86e" style="mix-blend-mode:multiply" d="M72.51 65.92h.99v1.99h-.99zm2.21-.35h1.38v2.34h-1.38z"/><path fill="#c3b86e" style="mix-blend-mode:multiply" d="M75.08 65.92h1.01v1.99h-1.01zm2.23-.35h1.38v2.34h-1.38z"/><path fill="#c3b86e" style="mix-blend-mode:multiply" d="M77.65 65.92h1.04v1.99h-1.04zm-23.2-.35h1.92v2.34h-1.92z"/><path fill="#c3b86e" style="mix-blend-mode:multiply" d="M54.8 65.92h1.57v1.99H54.8zm-11.3-.35h1.92v2.34H43.5z"/><path fill="#c3b86e" style="mix-blend-mode:multiply" d="M43.85 65.92h1.57v1.99h-1.57z"/><path fill="#c7c2b0" opacity=".4" style="mix-blend-mode:screen" d="M34.98 57.94h33.74v.61H34.98zm37.76.24l-4.02-.24v.61l4.02.01v-.38z"/><path fill="#a7a280" d="M45.66 50.14h1.85v8.42h-1.85z"/><path fill="#ede5e2" d="M112.44 59.48l-1.69 1.68v13.29h3.38V61.16l-1.69-1.68z"/><path fill="#e5d9d4" d="M97.63 63.84l-4.37 4.37v6.24H102v-6.24l-4.37-4.37z"/><ellipse cx="97.66" cy="66.87" rx=".87" ry=".98" fill="#fff"/><ellipse cx="97.66" cy="66.87" rx=".71" ry=".8" fill="#174b60"/><path fill="#174b60" stroke="#fff" stroke-miterlimit="10" stroke-width=".14" d="M100.63 72.02h-1.5v-2.41h1.5z"/><path fill="none" stroke="#fff" stroke-miterlimit="10" stroke-width=".08" d="M97.66 65.97v1.76m.78-.88h-1.59"/><path fill="none" stroke="#fff" stroke-miterlimit="10" stroke-width=".09" d="M100.63 70.46h-1.49"/><path fill="none" stroke="#fff" stroke-miterlimit="10" stroke-width=".07" d="M99.88 69.6v2.41"/><path fill="#174b60" stroke="#fff" stroke-miterlimit="10" stroke-width=".14" d="M96.18 72.02h-1.5v-2.41h1.5z"/><path fill="none" stroke="#fff" stroke-miterlimit="10" stroke-width=".09" d="M96.18 70.46h-1.5"/><path fill="none" stroke="#fff" stroke-miterlimit="10" stroke-width=".07" d="M95.43 69.6v2.41"/><path fill="none" stroke="#ed9e72" stroke-linecap="round" stroke-linejoin="round" stroke-width=".41" d="M92.83 68.64l4.8-4.8 4.37 4.37"/><path fill="#e5d9d4" d="M106.38 63.84L102 68.21v6.24h8.75v-6.24l-4.37-4.37z"/><ellipse cx="106.4" cy="66.87" rx=".87" ry=".98" fill="#fff"/><ellipse cx="106.4" cy="66.87" rx=".71" ry=".8" fill="#174b60"/><path fill="#174b60" stroke="#fff" stroke-miterlimit="10" stroke-width=".14" d="M109.38 72.02h-1.5v-2.41h1.5z"/><path fill="none" stroke="#fff" stroke-miterlimit="10" stroke-width=".08" d="M106.4 65.97v1.76m.79-.88h-1.59"/><path fill="none" stroke="#fff" stroke-miterlimit="10" stroke-width=".09" d="M109.38 70.46h-1.5"/><path fill="none" stroke="#fff" stroke-miterlimit="10" stroke-width=".07" d="M108.63 69.6v2.41"/><path fill="#174b60" stroke="#fff" stroke-miterlimit="10" stroke-width=".14" d="M104.92 72.02h-1.5v-2.41h1.5z"/><path fill="none" stroke="#fff" stroke-miterlimit="10" stroke-width=".09" d="M104.92 70.46h-1.49"/><path fill="none" stroke="#fff" stroke-miterlimit="10" stroke-width=".07" d="M104.18 69.6v2.41"/><path fill="none" stroke="#ed9e72" stroke-linecap="round" stroke-linejoin="round" stroke-width=".41" d="M102 68.21l4.38-4.37 4.8 4.8"/><path fill="#c1bb99" d="M92.83 74.45h22.26v6.96H92.83z"/><path d="M98.56 77.75a1.84 1.84 0 1 0-3.67 0v3.65h3.67v-3.64z" fill="#c3b86e"/><path d="M98.56 77.75a1.55 1.55 0 1 0-3.06 0v3.65h3.06v-3.64z" fill="#c3b86e" style="mix-blend-mode:multiply"/><path d="M109.49 77.75a1.84 1.84 0 1 1 3.67 0v3.65h-3.67v-3.64z" fill="#c3b86e"/><path d="M109.49 77.75a1.55 1.55 0 1 1 3.06 0v3.65h-3.06v-3.64zm-7.15 0a1.84 1.84 0 1 1 3.67 0v3.65h-3.67v-3.64z" fill="#c3b86e" style="mix-blend-mode:multiply"/><path fill="#174b60" stroke="#fff" stroke-miterlimit="10" stroke-width=".1" d="M111.9 62.41h1.07v1.43h-1.07zm0 6.23h1.07v1.43h-1.07z"/><path fill="#8c2813" stroke="#fff" stroke-miterlimit="10" stroke-width=".1" d="M111.9 74.45v-2.86h1.07v2.86"/><path fill="#174b60" stroke="#fff" stroke-miterlimit="10" stroke-width=".14" d="M111.9 64.91h1.07v2.47h-1.07z"/><path fill="none" stroke="#fff" stroke-miterlimit="10" stroke-width=".1" d="M111.9 65.23h1.07"/><path fill="none" stroke="#ed9e72" stroke-linecap="round" stroke-linejoin="round" stroke-width=".41" d="M110.48 60.33l1.96-1.95 1.95 1.95"/><path fill="none" stroke="#77331c" stroke-miterlimit="10" stroke-width=".52" d="M119.88 81.26V71.7"/><path d="M119.88 71.7a4.48 4.48 0 0 1-3.62 3 4.48 4.48 0 0 1 3.62-3z" fill="#66b32e" style="mix-blend-mode:hard-light"/><path d="M119.88 71.74a4.48 4.48 0 0 1-4.55 1.16 4.48 4.48 0 0 1 4.55-1.16z" fill="#66b32e" style="mix-blend-mode:hard-light"/><path d="M119.87 71.7a4.48 4.48 0 0 1-1.39 4.49 4.48 4.48 0 0 1 1.39-4.49zm.01 0a4.48 4.48 0 0 0 3.62 3 4.48 4.48 0 0 0-3.62-3z" fill="#66b32e" style="mix-blend-mode:hard-light"/><path d="M119.88 71.74a4.48 4.48 0 0 0 4.55 1.16 4.48 4.48 0 0 0-4.55-1.16z" fill="#66b32e" style="mix-blend-mode:hard-light"/><path d="M119.88 71.7a4.48 4.48 0 0 0 1.39 4.49 4.48 4.48 0 0 0-1.39-4.49z" fill="#66b32e" style="mix-blend-mode:hard-light"/><path d="M122.69 68.56a4.48 4.48 0 0 0-3.13 3.5 4.48 4.48 0 0 0 3.13-3.5z" fill="#66b32e" style="mix-blend-mode:hard-light"/><circle cx="119.37" cy="72.45" r=".52" fill="#f59e22" style="mix-blend-mode:multiply"/><circle cx="120" cy="72.97" r=".52" fill="#f59e22" style="mix-blend-mode:multiply"/><circle cx="120.06" cy="72.45" r=".52" fill="#f59e22" style="mix-blend-mode:multiply"/><path d="M87.89 72.11a4.48 4.48 0 0 0 1.39 4.49 4.48 4.48 0 0 0-1.39-4.49z" fill="#66b32e" style="mix-blend-mode:hard-light"/><path fill="none" stroke="#77331c" stroke-miterlimit="10" stroke-width=".52" d="M87.88 81.68v-9.57"/><path d="M87.88 72.11a4.48 4.48 0 0 0 3.62 3 4.48 4.48 0 0 0-3.62-3z" fill="#66b32e" style="mix-blend-mode:hard-light"/><path d="M87.88 72.15a4.48 4.48 0 0 0 4.55 1.16 4.48 4.48 0 0 0-4.55-1.16zm0-.04a4.48 4.48 0 0 1-3.62 3 4.48 4.48 0 0 1 3.62-3z" fill="#66b32e" style="mix-blend-mode:hard-light"/><path d="M87.88 72.15a4.48 4.48 0 0 1-4.55 1.16 4.48 4.48 0 0 1 4.55-1.16z" fill="#66b32e" style="mix-blend-mode:hard-light"/><path d="M87.88 72.11a4.48 4.48 0 0 1-1.39 4.49 4.48 4.48 0 0 1 1.39-4.49z" fill="#66b32e" style="mix-blend-mode:hard-light"/><path d="M85.07 69a4.48 4.48 0 0 1 3.13 3.5 4.48 4.48 0 0 1-3.13-3.5z" fill="#66b32e" style="mix-blend-mode:hard-light"/><circle cx="88.39" cy="72.86" r=".52" fill="#f59e22" style="mix-blend-mode:multiply"/><circle cx="87.76" cy="73.38" r=".52" fill="#f59e22" style="mix-blend-mode:multiply"/><circle cx="87.7" cy="72.86" r=".52" fill="#f59e22" style="mix-blend-mode:multiply"/><path d="M62.41 72.11A4.48 4.48 0 0 1 61 76.6a4.48 4.48 0 0 1 1.39-4.49z" fill="#66b32e" style="mix-blend-mode:hard-light"/><path fill="none" stroke="#77331c" stroke-miterlimit="10" stroke-width=".52" d="M62.42 81.68v-9.57"/><path d="M62.42 72.11a4.48 4.48 0 0 1-3.62 3 4.48 4.48 0 0 1 3.62-3z" fill="#66b32e" style="mix-blend-mode:hard-light"/><path d="M62.42 72.15a4.48 4.48 0 0 1-4.55 1.16 4.48 4.48 0 0 1 4.55-1.16zm0-.04a4.48 4.48 0 0 0 3.62 3 4.48 4.48 0 0 0-3.62-3z" fill="#66b32e" style="mix-blend-mode:hard-light"/><path d="M62.42 72.15A4.48 4.48 0 0 0 67 73.31a4.48 4.48 0 0 0-4.55-1.16z" fill="#66b32e" style="mix-blend-mode:hard-light"/><path d="M62.42 72.11a4.48 4.48 0 0 0 1.39 4.49 4.48 4.48 0 0 0-1.39-4.49z" fill="#66b32e" style="mix-blend-mode:hard-light"/><path d="M65.23 69a4.48 4.48 0 0 0-3.13 3.5 4.48 4.48 0 0 0 3.13-3.5z" fill="#66b32e" style="mix-blend-mode:hard-light"/><circle cx="61.91" cy="72.86" r=".52" fill="#f59e22" style="mix-blend-mode:multiply"/><circle cx="62.54" cy="73.38" r=".52" fill="#f59e22" style="mix-blend-mode:multiply"/><circle cx="62.6" cy="72.86" r=".52" fill="#f59e22" style="mix-blend-mode:multiply"/><path d="M179.45 68.88c-8.19 0-13.55 3.92-18 8.32S145 81.4 145 81.4h68.53s-11.73.2-16.13-4.2-9.9-8.32-17.95-8.32z" fill="#5ab041"/><path d="M213.06 81.4c-2.23 0-11.78-.33-15.65-4.2-4.4-4.4-9.91-8.32-18-8.32V81.4z" fill="#1d1d1b" opacity=".31" style="mix-blend-mode:multiply"/><path fill="#80cde8" d="M199.87 83.5h-46.02l-7.96-2.1h63.52l-9.54 2.1z"/><path d="M109.6 25.86a9.26 9.26 0 0 0-13.77 0zm-52.9 0a8.59 8.59 0 0 0-6.89-3.07 8.59 8.59 0 0 0-6.89 3.07zm37.61.14c-3-5.45-10-9.27-18.2-9.27S60.93 20.52 57.9 26zm119.24-14.68a6.95 6.95 0 0 0-12.37 0zm-47.55 0a6.95 6.95 0 0 0-12.37 0zm33.81.13a17.41 17.41 0 0 0-32.71 0zM170.44 36.9a5.84 5.84 0 0 0-10.12 0zm-38.9 0a5.84 5.84 0 0 0-10.12 0zm27.65.1a14.55 14.55 0 0 0-26.76 0z" style="mix-blend-mode:multiply" fill="#e7eff2"/><path fill="#80cde8" d="M0 136.28h2.24V94.7L0 92.68v43.6z"/><path fill="#2096b2" d="M2.24 94.7h4.48v43.05H2.24z"/><path fill="#80cde8" d="M0 92.68l8.94-4.7 3.58 2.24L2.24 94.7 0 92.68zm256.52 0l-8.94-4.7-3.58 2.24 10.28 4.48 2.24-2.02z"/><circle cx="1.12" cy="136.28" r="1.12" fill="#80cde8"/><circle cx="4.48" cy="137.75" r="2.24" fill="#2096b2"/><circle cx="1.12" cy="139.91" r="1.12" fill="#80cde8"/><circle cx="4.48" cy="148.83" r="2.24" fill="#2096b2"/><circle cx="1.12" cy="149.51" r="1.12" fill="#80cde8"/><circle cx="4.48" cy="158.43" r="2.24" fill="#2096b2"/><circle cx="1.12" cy="160.63" r="1.12" fill="#80cde8"/><circle cx="4.48" cy="169.51" r="2.24" fill="#2096b2"/><path fill="#80cde8" d="M0 139.91h2.24v9.6H0z"/><path fill="#2096b2" d="M2.24 148.83h4.48v9.6H2.24z"/><path fill="#80cde8" d="M256.52 171.92h-2.24V94.7l2.24-2.02v79.24z"/><path fill="#2096b2" d="M254.28 173.39h-4.48V94.71h4.48z"/><circle cx="255.4" cy="171.92" r="1.12" fill="#80cde8"/><circle cx="252.04" cy="173.39" r="2.24" fill="#2096b2"/><circle cx="255.4" cy="175.55" r="1.12" fill="#80cde8"/><circle cx="252.04" cy="184.46" r="2.24" fill="#2096b2"/><circle cx="255.4" cy="185.15" r="1.12" fill="#80cde8"/><circle cx="252.04" cy="194.07" r="2.24" fill="#2096b2"/><circle cx="255.4" cy="196.26" r="1.12" fill="#80cde8"/><circle cx="252.04" cy="205.14" r="2.24" fill="#2096b2"/><path fill="#80cde8" d="M256.52 185.15h-2.24v-9.6h2.24z"/><path fill="#2096b2" d="M254.28 194.07h-4.48v-9.6h4.48z"/></g></g></svg>