<svg xmlns="http://www.w3.org/2000/svg" viewBox="0 0 260.39 314.89"><title>ile-eth-1</title><g data-name="Calque 2"><g data-name="Calque 6" style="isolation:isolate"><path d="M47.94 126.52c0-12.77 4.51-28.81 10.07-28.81s10.07 16 10.07 28.81" fill="#8e4b1e"/><path d="M57.69 97.73c-5.92.88-9.76 17.67-9.76 28.79h15.95c0-11.12-1.63-25.46-6.19-28.79z" fill="#8e4b1e" opacity=".57" style="mix-blend-mode:screen"/><path fill="#542b12" d="M56.08 119.43h3.84v7.09h-3.84z"/><path fill="#2b150d" d="M56.83 120.18h2.39v6.35h-2.39z"/><path d="M55.49 120.67a2.54 2.54 0 1 1 5.07 0v2.17a2.54 2.54 0 0 0-5.07 0z" fill="#8e4b1e"/><path d="M55.49 120.67a2.54 2.54 0 1 1 5.07 0v2.17a2.54 2.54 0 0 0-5.07 0z" fill="#8e4b1e" opacity=".57" style="mix-blend-mode:screen"/><path fill="#da7632" style="mix-blend-mode:multiply" d="M14.9 129.32l90.76 185.57 104.27-185.57H14.9z"/><path fill="#da7632" style="mix-blend-mode:multiply" d="M128.43 129.32l54 107.1 62.04-107.1H128.43z"/><path fill="#da7632" style="mix-blend-mode:multiply" d="M0 129.47l69.23 146.44 79.55-146.44H0z"/><path fill="#da7632" style="mix-blend-mode:multiply" d="M77.3 129.47l81.29 171.95 93.4-171.95H77.3z"/><path fill="#da7632" style="mix-blend-mode:multiply" d="M37.36 129.32l28.69 65.46 20.43-32.73 32.15 69.68 55.22-102.41H37.36z"/><path d="M24 126.51c0-19.25 6.79-43.43 15.18-43.43s15.18 24.17 15.18 43.43" fill="#8e4b1e"/><path d="M38.74 83.11C29.81 84.43 24 109.74 24 126.51h24c.07-16.77-2.4-38.39-9.26-43.4z" fill="#8e4b1e" opacity=".57" style="mix-blend-mode:screen"/><path fill="#542b12" d="M36.31 115.82h5.78v10.69h-5.78z"/><path fill="#2b150d" d="M37.44 116.94h3.6v9.56h-3.6z"/><path d="M35.42 117.69a3.82 3.82 0 0 1 7.65 0V121a3.82 3.82 0 1 0-7.65 0z" fill="#8e4b1e"/><path d="M35.42 117.69a3.82 3.82 0 0 1 7.65 0V121a3.82 3.82 0 1 0-7.65 0z" fill="#8e4b1e" opacity=".57" style="mix-blend-mode:screen"/><path d="M64 126.51c0-19.25 6.79-43.43 15.18-43.43s15.18 24.17 15.18 43.43" fill="#8e4b1e"/><path d="M78.74 83.11C69.82 84.43 64 109.74 64 126.51h24c.07-16.77-2.39-38.39-9.26-43.4z" fill="#8e4b1e" opacity=".57" style="mix-blend-mode:screen"/><path fill="#542b12" d="M76.32 115.82h5.78v10.69h-5.78z"/><path fill="#2b150d" d="M77.44 116.94h3.6v9.56h-3.6z"/><path d="M75.42 117.69a3.82 3.82 0 0 1 7.65 0V121a3.82 3.82 0 1 0-7.65 0z" fill="#8e4b1e"/><path d="M75.42 117.69a3.82 3.82 0 0 1 7.65 0V121a3.82 3.82 0 1 0-7.65 0z" fill="#8e4b1e" opacity=".57" style="mix-blend-mode:screen"/><path fill="#326b54" d="M229.5 126.67h-26.63l1.98-43.87h22.67l1.98 43.87z"/><path fill="#ffe20f" d="M225.65 82.8h-18.93l1.71-26.27h15.51l1.71 26.27z"/><path fill="#667c29" d="M222.71 56.53h-13.05l1.29-19.58h10.47l1.29 19.58z"/><path fill="#ffe20f" d="M221.22 36.95h-10.07l1.28-17.56h7.51l1.28 17.56z"/><path fill="#c4b8bc" d="M219.26 19.39h-6.16l.72-13.64h4.71l.73 13.64z"/><path fill="#070a0b" d="M217.94 5.75h-3.52l1.7-5.75h.12l1.7 5.75z"/><path fill="#1d1d1b" opacity=".3" style="mix-blend-mode:multiply" d="M227.8 89.1l-.28-6.3h-22.67l-.28 6.3h23.23z"/><path fill="#667c29" d="M202.87 82.21h26.63v1.18h-26.63z"/><path fill="#8e6d45" d="M200.93 123.31h30.34v3.36h-30.34z"/><path fill="#1d1d1b" opacity=".3" style="mix-blend-mode:multiply" d="M224.21 60.63l-.27-4.1h-15.51l-.27 4.1h16.05z"/><path fill="#667c29" d="M207.75 55.94h16.87v1.18h-16.87zm3.4-37.15h10.07v1.18h-10.07zm1.95-13.04h6.16v2.06h-6.16z"/><path fill="#8e6d45" d="M209.66 36.36h13.04v1.18h-13.04zm0-1.82h.52v1.82h-.52zm12.52 0h.52v1.82h-.52zm-6-.38l-1.5 2.2h3.01l-1.51-2.2zm3.76 0l-1.51 2.2h3.01l-1.5-2.2zm-7.51 0l-1.5 2.2h3.01l-1.51-2.2z"/><path fill="none" stroke="#1d1d1b" stroke-miterlimit="10" stroke-width=".13" d="M209.92 32.03h12.52m-12.52 0v2.51m12.52-2.51v2.51m-10.01-.37v-2.14m3.75 2.14v-2.14m3.76 2.14v-2.14"/><path fill="#1d1d1b" opacity=".3" style="mix-blend-mode:multiply" d="M213.65 8.97h5.06l-.07-1.16h-4.92l-.07 1.16zm-1.4 12.89h7.87l-.14-1.88h-7.59l-.14 1.88zm-1.54 18.73h10.95l-.2-3.05h-10.55l-.2 3.05z"/><path fill="#1d1d1b" opacity=".7" style="mix-blend-mode:multiply" d="M216.18 89.98l-3.13 6.28h6.27l-3.14-6.28z"/><path fill="#1d1d1b" opacity=".7" style="mix-blend-mode:multiply" d="M216.18 91.75l-1.92 3.84h3.84l-1.92-3.84zm0-31.52l-1.86 3.94v5.05h3.73v-5.05l-1.87-3.94z"/><path fill="#1d1d1b" opacity=".7" style="mix-blend-mode:multiply" d="M216.18 61.97l-1.3 2.43v4.08h2.61V64.4l-1.31-2.43zm0-22.23l-1.3 2.76v3.53h2.61V42.5l-1.31-2.76z"/><path fill="#1d1d1b" opacity=".7" style="mix-blend-mode:multiply" d="M216.18 40.96l-.91 1.7v2.86h1.83v-2.86l-.92-1.7zm-.92-18.51h1.84v4.01h-1.84z"/><path fill="#1d1d1b" opacity=".7" style="mix-blend-mode:multiply" d="M215.54 22.76h1.28v3.4h-1.28z"/><path fill="#e8af80" d="M164.92 67.16v16.98h-20.15v42.41h43.67V67.16h-23.52z"/><path d="M163.53 95.27a2.86 2.86 0 0 0-3 2.68v7.86h6V98a2.86 2.86 0 0 0-3-2.73z" fill="#eed5b2"/><path d="M163.53 96a2.32 2.32 0 0 0-2.32 2.32v7.46h4.63v-7.42a2.32 2.32 0 0 0-2.31-2.36z" fill="#171d26"/><path d="M163.88 96.08v9.74h2v-7.46a2.31 2.31 0 0 0-2-2.28z" fill="#784333"/><path fill="#f2dfd1" d="M187.72 108.82l3.69-2.893.519.66-3.691 2.894z"/><path fill="#fbcaa4" d="M144.77 106.76h43.67v19.79h-43.67z"/><path d="M156.76 97.75a2 2 0 0 0-1.9 2.05v6h3.8v-6a2 2 0 0 0-1.9-2.05z" fill="#eed5b2"/><path fill="#e8af80" style="mix-blend-mode:multiply" d="M153.55 100.24h13.86v5.58h-13.86z"/><path d="M175.82 76.17a2.81 2.81 0 0 0-3 2.63v7.71h5.91V78.8a2.81 2.81 0 0 0-2.91-2.63z" fill="#eed5b2"/><path d="M175.82 76.93a2.27 2.27 0 0 0-2.27 2.27v7.32h4.54V79.2a2.27 2.27 0 0 0-2.27-2.27zm-19.06 21.41a1.64 1.64 0 0 0-1.46 1.77v5.7h2.93v-5.7a1.64 1.64 0 0 0-1.47-1.77z" fill="#171d26"/><path fill="#f2dfd1" d="M169.97 86.52h12.09v.84h-12.09z"/><path fill="#1d1d1b" opacity=".3" style="mix-blend-mode:multiply" d="M170.58 87.36h10.48v1.52h-10.48z"/><path fill="none" stroke="#f2dfd1" stroke-miterlimit="10" stroke-width=".57" d="M170.58 82.53h10.48v3.99h-10.48zm5.24 0v3.99m-1.29-3.99v3.99m-1.47-3.99v3.99m-1.47-3.99v3.99m8.65-3.99v3.99m-1.47-3.99v3.99m-1.47-3.99v3.99"/><path fill="#f2dfd1" d="M150.99 105.92h29.54v.84h-29.54zm37.45 0h5v.84h-5z"/><path fill="#1d1d1b" opacity=".3" style="mix-blend-mode:multiply" d="M152.08 106.76h27.35v.76h-27.35z"/><path fill="none" stroke="#f2dfd1" stroke-miterlimit="10" stroke-width=".57" d="M152.08 101.93h27.35v3.99h-27.35zm26.41 0v3.99m-1.1-3.99v3.99m-1.11-3.99v3.99m-1.11-3.99v3.99m-1.11-3.99v3.99m-1.11-3.99v3.99m-1.11-3.99v3.99m-1.11-3.99v3.99m-1.1-3.99v3.99m-1.11-3.99v3.99m20.07-3.99h3.99v3.99h-3.99zm2.9 0v3.99m-1.11-3.99v3.99m-1.11-3.99v3.99m-21.86-3.99v3.99m-1.11-3.99v3.99m-1.11-3.99v3.99m-1.11-3.99v3.99m-1.1-3.99v3.99m-1.11-3.99v3.99m-1.11-3.99v3.99m-1.11-3.99v3.99m-1.11-3.99v3.99m-1.11-3.99v3.99m-1.1-3.99v3.99m-1.11-3.99v3.99m-1.11-3.99v3.99m-1.11-3.99v3.99"/><path fill="#e8af80" d="M164.92 65.3h3.05v1.86h-3.05zm6.78 0h3.05v1.86h-3.05zm6.83 0h3.05v1.86h-3.05zm6.82 0h3.05v1.86h-3.05z"/><path fill="none" stroke="#f2dfd1" stroke-miterlimit="10" stroke-width=".57" d="M164.92 65.3h3.05m3.73 0h3.06m3.77 0h3.05m3.77 0h3.05"/><path fill="none" stroke="#1d1d1b" stroke-miterlimit="10" stroke-width=".57" opacity=".3" style="mix-blend-mode:multiply" d="M164.92 65.55h3.05"/><path fill="none" stroke="#f2dfd1" stroke-miterlimit="10" stroke-width=".57" d="M164.92 71.19h23.52"/><path fill="none" stroke="#1d1d1b" stroke-miterlimit="10" stroke-width=".57" opacity=".3" style="mix-blend-mode:multiply" d="M164.92 71.45h23.52m-16.74-5.9h3.06m3.77 0h3.05m3.77 0h3.05"/><path d="M164.92 65.17c0-1.15.68-2.09 1.53-2.09S168 64 168 65.17m-21.02 17.16h3.05v1.86h-3.05z" fill="#e8af80"/><path fill="none" stroke="#f2dfd1" stroke-miterlimit="10" stroke-width=".57" d="M146.98 82.33h3.06"/><path fill="none" stroke="#1d1d1b" stroke-miterlimit="10" stroke-width=".57" opacity=".3" style="mix-blend-mode:multiply" d="M146.98 82.58h3.06"/><path d="M147 82.2c0-1.15.68-2.09 1.53-2.09S150 81 150 82.2m21.7-17.03c0-1.15.68-2.09 1.53-2.09s1.53.94 1.53 2.09m3.77 0c0-1.15.68-2.09 1.53-2.09s1.53.94 1.53 2.09m3.76 0c0-1.15.68-2.09 1.53-2.09s1.53.94 1.53 2.09" fill="#e8af80"/><path fill="none" stroke="#f2dfd1" stroke-miterlimit="10" stroke-width=".57" d="M144.77 92.1h43.67"/><path fill="none" stroke="#1d1d1b" stroke-miterlimit="10" stroke-width=".57" opacity=".3" style="mix-blend-mode:multiply" d="M144.77 92.35h43.67"/><path fill="#171d26" d="M163.23 114.05h1.36v1.36h-1.36zm5.3 0h1.36v1.36h-1.36zm12 0h1.36v1.36h-1.36zm5.3 0h1.36v1.36h-1.36zm-39.5 0h1.36v1.36h-1.36zm5.31 0H153v1.36h-1.36z"/><path fill="#e8af80" style="mix-blend-mode:multiply" d="M175.37 95.17h1.3v3.13h-1.3zm-.61-.87h2.52v.87h-2.52z"/><path fill="#e8af80" style="mix-blend-mode:multiply" d="M172.64 93.79h6.76v.51h-6.76z"/><path fill="#784333" opacity=".5" d="M144.77 125.07h43.67v1.48h-43.67z"/><path d="M157.31 111.9c-1.59 0-2.87 1.55-2.87 3.47v11.18h5.74v-11.18c0-1.92-1.28-3.47-2.87-3.47zm18.51 0c-1.59 0-2.87 1.55-2.87 3.47v11.18h5.74v-11.18c0-1.92-1.29-3.47-2.87-3.47z" fill="#171d26"/><path d="M157.43 111.91h-.12c-1.59 0-2.87 1.55-2.87 3.47v11.18h3z" fill="#784333"/><path fill="none" stroke="#784333" stroke-miterlimit="10" stroke-width="1.06" d="M97.09 126.48v-5.9m-5.51-7.26l-2.18 3.34m5.32-.65l-3.99 2.42m8.19-5.11l.94-3.6m5.72 1.75l2.07-3.99m-10.83 2.24l2.1 3.6 3.07 2.96m-11.26-6.31l.85 3.35m2.33-2.15l-2.33 2.15m-6.49-.35l2.46 1.24 3.18 4.22 6.36 2.15"/><path fill="none" stroke="#784333" stroke-miterlimit="10" stroke-width="1.06" d="M105.58 111.47l-3.59 4.81-4.9 4.3m8.49-9.11l5.13-2.4"/><ellipse cx="83.31" cy="110.77" rx="4.07" ry="2.41" fill="#66b32e" style="mix-blend-mode:hard-light"/><ellipse cx="98.58" cy="109.48" rx="4.07" ry="2.41" fill="#66b32e" style="mix-blend-mode:hard-light"/><ellipse cx="110.71" cy="110.27" rx="4.07" ry="2.41" fill="#66b32e" style="mix-blend-mode:hard-light"/><ellipse cx="108.14" cy="107.86" rx="4.07" ry="2.41" fill="#66b32e" style="mix-blend-mode:hard-light"/><ellipse cx="113.43" cy="108.36" rx="4.07" ry="2.41" fill="#66b32e" style="mix-blend-mode:hard-light"/><ellipse cx="93.45" cy="116.95" rx="4.07" ry="2.41" fill="#66b32e" style="mix-blend-mode:hard-light"/><ellipse cx="91.72" cy="111.17" rx="4.07" ry="2.41" fill="#66b32e" style="mix-blend-mode:hard-light"/><ellipse cx="86.66" cy="111.57" rx="4.07" ry="2.41" fill="#66b32e" style="mix-blend-mode:hard-light"/><path fill="none" stroke="#784333" stroke-miterlimit="10" stroke-width=".72" d="M20.65 126.48v-4m3.74-4.93l1.48 2.27m-3.61-.44l2.71 1.64m-5.56-3.47l-.64-2.44m-3.88 1.19l-1.4-2.71m7.35 1.52l-1.43 2.44-2.08 2.01m7.64-4.28l-.58 2.27m-1.58-1.46l1.58 1.46m4.41-.24l-1.67.85-2.16 2.86-4.32 1.46"/><path fill="none" stroke="#784333" stroke-miterlimit="10" stroke-width=".72" d="M14.89 116.3l2.44 3.26 3.32 2.92m-5.76-6.18l-3.48-1.63"/><ellipse cx="30" cy="115.82" rx="2.76" ry="1.64" fill="#66b32e" style="mix-blend-mode:hard-light"/><ellipse cx="19.64" cy="114.94" rx="2.76" ry="1.64" fill="#66b32e" style="mix-blend-mode:hard-light"/><ellipse cx="11.41" cy="115.48" rx="2.76" ry="1.64" fill="#66b32e" style="mix-blend-mode:hard-light"/><ellipse cx="13.15" cy="113.85" rx="2.76" ry="1.64" fill="#66b32e" style="mix-blend-mode:hard-light"/><ellipse cx="9.56" cy="114.18" rx="2.76" ry="1.64" fill="#66b32e" style="mix-blend-mode:hard-light"/><ellipse cx="23.13" cy="120.01" rx="2.76" ry="1.64" fill="#66b32e" style="mix-blend-mode:hard-light"/><ellipse cx="24.3" cy="116.09" rx="2.76" ry="1.64" fill="#66b32e" style="mix-blend-mode:hard-light"/><ellipse cx="27.73" cy="116.36" rx="2.76" ry="1.64" fill="#66b32e" style="mix-blend-mode:hard-light"/><path fill="none" stroke="#784333" stroke-miterlimit="10" stroke-width=".72" d="M142.28 126.48v-4m3.74-4.93l1.48 2.27m-3.61-.44l2.71 1.64m-5.56-3.47l-.64-2.44m-3.88 1.19l-1.41-2.71m7.36 1.52l-1.43 2.44-2.08 2.01m7.64-4.28l-.58 2.27m-1.58-1.46l1.58 1.46m4.4-.24l-1.66.85-2.16 2.86-4.32 1.46"/><path fill="none" stroke="#784333" stroke-miterlimit="10" stroke-width=".72" d="M136.52 116.3l2.44 3.26 3.32 2.92m-5.76-6.18l-3.48-1.63"/><ellipse cx="151.63" cy="115.82" rx="2.76" ry="1.64" fill="#66b32e" style="mix-blend-mode:hard-light"/><ellipse cx="141.27" cy="114.94" rx="2.76" ry="1.64" fill="#66b32e" style="mix-blend-mode:hard-light"/><ellipse cx="133.04" cy="115.48" rx="2.76" ry="1.64" fill="#66b32e" style="mix-blend-mode:hard-light"/><ellipse cx="134.78" cy="113.85" rx="2.76" ry="1.64" fill="#66b32e" style="mix-blend-mode:hard-light"/><ellipse cx="131.19" cy="114.18" rx="2.76" ry="1.64" fill="#66b32e" style="mix-blend-mode:hard-light"/><ellipse cx="144.75" cy="120.01" rx="2.76" ry="1.64" fill="#66b32e" style="mix-blend-mode:hard-light"/><ellipse cx="145.92" cy="116.09" rx="2.76" ry="1.64" fill="#66b32e" style="mix-blend-mode:hard-light"/><ellipse cx="149.36" cy="116.36" rx="2.76" ry="1.64" fill="#66b32e" style="mix-blend-mode:hard-light"/><path fill="none" stroke="#784333" stroke-miterlimit="10" stroke-width="1.06" d="M239.98 126.48v-5.9m-5.51-7.26l-2.18 3.34m5.32-.65l-3.99 2.42m8.19-5.11l.94-3.6m5.72 1.75l2.07-3.99m-10.83 2.24l2.1 3.6 3.07 2.96m-11.26-6.31l.85 3.35m2.33-2.15l-2.33 2.15m-6.49-.35l2.46 1.24 3.18 4.22 6.36 2.15"/><path fill="none" stroke="#784333" stroke-miterlimit="10" stroke-width="1.06" d="M248.47 111.47l-3.59 4.81-4.9 4.3m8.49-9.11l5.13-2.4"/><ellipse cx="226.2" cy="110.77" rx="4.07" ry="2.41" fill="#66b32e" style="mix-blend-mode:hard-light"/><ellipse cx="241.47" cy="109.48" rx="4.07" ry="2.41" fill="#66b32e" style="mix-blend-mode:hard-light"/><ellipse cx="253.6" cy="110.27" rx="4.07" ry="2.41" fill="#66b32e" style="mix-blend-mode:hard-light"/><ellipse cx="251.03" cy="107.86" rx="4.07" ry="2.41" fill="#66b32e" style="mix-blend-mode:hard-light"/><ellipse cx="256.32" cy="108.36" rx="4.07" ry="2.41" fill="#66b32e" style="mix-blend-mode:hard-light"/><ellipse cx="236.34" cy="116.95" rx="4.07" ry="2.41" fill="#66b32e" style="mix-blend-mode:hard-light"/><ellipse cx="234.61" cy="111.17" rx="4.07" ry="2.41" fill="#66b32e" style="mix-blend-mode:hard-light"/><ellipse cx="229.55" cy="111.57" rx="4.07" ry="2.41" fill="#66b32e" style="mix-blend-mode:hard-light"/><path fill="none" stroke="#784333" stroke-miterlimit="10" stroke-width="1.06" d="M193.85 126.48v-5.9m5.52-7.26l2.18 3.34m-5.32-.65l3.99 2.42m-8.19-5.11l-.95-3.6m-5.71 1.75l-2.07-3.99m10.83 2.24l-2.1 3.6-3.07 2.96m11.26-6.31l-.85 3.35m-2.33-2.15l2.33 2.15m6.49-.35l-2.46 1.24-3.18 4.22-6.37 2.15"/><path fill="none" stroke="#784333" stroke-miterlimit="10" stroke-width="1.06" d="M185.37 111.47l3.59 4.81 4.89 4.3m-8.48-9.11l-5.13-2.4"/><ellipse cx="207.64" cy="110.77" rx="4.07" ry="2.41" fill="#66b32e" style="mix-blend-mode:hard-light"/><ellipse cx="192.37" cy="109.48" rx="4.07" ry="2.41" fill="#66b32e" style="mix-blend-mode:hard-light"/><ellipse cx="180.24" cy="110.27" rx="4.07" ry="2.41" fill="#66b32e" style="mix-blend-mode:hard-light"/><ellipse cx="182.81" cy="107.86" rx="4.07" ry="2.41" fill="#66b32e" style="mix-blend-mode:hard-light"/><ellipse cx="177.52" cy="108.36" rx="4.07" ry="2.41" fill="#66b32e" style="mix-blend-mode:hard-light"/><ellipse cx="197.5" cy="116.95" rx="4.07" ry="2.41" fill="#66b32e" style="mix-blend-mode:hard-light"/><ellipse cx="199.23" cy="111.17" rx="4.07" ry="2.41" fill="#66b32e" style="mix-blend-mode:hard-light"/><ellipse cx="204.28" cy="111.57" rx="4.07" ry="2.41" fill="#66b32e" style="mix-blend-mode:hard-light"/><path fill="#99b22e" d="M242.75 126.25H9.56L0 129.47h251.99l-9.24-3.22z"/></g></g></svg>