<svg xmlns="http://www.w3.org/2000/svg" preserveAspectRatio="none" viewBox="0 0 1428.06 44"><title>light-wave</title><g data-name="Calque 2"><g data-name="Calque 1"><g data-name="Calque 2"><path d="M1408.23 19.83A19.83 19.83 0 0 1 1388.39 0a19.83 19.83 0 0 1-19.83 19.83A19.83 19.83 0 0 1 1348.73 0a19.84 19.84 0 0 1-19.83 19.84A19.84 19.84 0 0 1 1309.06 0a19.84 19.84 0 0 1-19.84 19.84A19.84 19.84 0 0 1 1269.39 0a19.84 19.84 0 0 1-19.83 19.84A19.84 19.84 0 0 1 1229.72 0a19.84 19.84 0 0 1-19.84 19.84A19.84 19.84 0 0 1 1190 0a19.83 19.83 0 0 1-19.83 19.83A19.83 19.83 0 0 1 1150.38 0a19.84 19.84 0 0 1-19.84 19.84A19.84 19.84 0 0 1 1110.71 0a19.85 19.85 0 0 1-19.85 19.85A19.85 19.85 0 0 1 1071 0a19.84 19.84 0 0 1-19.83 19.84A19.84 19.84 0 0 1 1031.33 0a19.83 19.83 0 0 1-19.83 19.83A19.83 19.83 0 0 1 991.71 0a19.86 19.86 0 0 1-19.86 19.86A19.86 19.86 0 0 1 952 0a19.83 19.83 0 0 1-19.83 19.83A19.84 19.84 0 0 1 912.33 0a19.83 19.83 0 0 1-20.59 19 19.83 19.83 0 0 1-19-19 19.85 19.85 0 0 1-19.85 19.85A19.85 19.85 0 0 1 833 0a19.83 19.83 0 0 1-19.83 19.83A19.84 19.84 0 0 1 793.33 0a19.83 19.83 0 1 1-39.63 1.54V0a19.85 19.85 0 0 1-19.85 19.85A19.85 19.85 0 0 1 714 0a19.83 19.83 0 0 1-19.83 19.83A19.84 19.84 0 0 1 674.33 0a19.84 19.84 0 0 1-19.84 19.83A19.83 19.83 0 0 1 634.66 0 19.83 19.83 0 0 1 595 0a19.83 19.83 0 0 1-19.83 19.83A19.84 19.84 0 0 1 555.33 0a19.84 19.84 0 0 1-19.84 19.83A19.83 19.83 0 0 1 515.66 0a19.83 19.83 0 0 1-19.83 19.83A19.83 19.83 0 0 1 476 0a19.83 19.83 0 0 1-19.83 19.83A19.83 19.83 0 0 1 436.33 0a19.83 19.83 0 0 1-19.83 19.83A19.83 19.83 0 0 1 396.66 0a19.83 19.83 0 0 1-19.83 19.83A19.83 19.83 0 0 1 357 0a19.83 19.83 0 0 1-19.83 19.83A19.83 19.83 0 0 1 317.33 0a19.83 19.83 0 0 1-19.83 19.83A19.83 19.83 0 0 1 277.66 0a19.83 19.83 0 0 1-19.83 19.83A19.83 19.83 0 0 1 238 0a19.83 19.83 0 0 1-19.83 19.83A19.84 19.84 0 0 1 198.33 0a19.84 19.84 0 0 1-19.84 19.83A19.83 19.83 0 0 1 158.66 0a19.83 19.83 0 0 1-19.83 19.83A19.83 19.83 0 0 1 119 0a19.83 19.83 0 0 1-19.83 19.83A19.83 19.83 0 0 1 79.34 0 19.83 19.83 0 0 1 59.5 19.83 19.83 19.83 0 0 1 39.67 0a19.83 19.83 0 0 1-19.84 19.83A19.83 19.83 0 0 1 0 0v44h1428.06V0a19.83 19.83 0 0 1-19.83 19.83z" fill="#95c3e5" data-name="Calque 1-2"/></g></g></g></svg>