<svg width="236" height="231" xmlns="http://www.w3.org/2000/svg" xmlns:xlink="http://www.w3.org/1999/xlink"><title>Page 1</title><defs><path id="a" d="M.388 39.172h23.471V.297H.388z"/><path id="c" d="M82.018.52v37.221H.143V.521h81.875z"/><path id="e" d="M82.018.52v37.221H.143V.521h81.875z"/><path id="g" d="M.31.522h19.988V25.05H.31V.522z"/></defs><g fill="none" fill-rule="evenodd"><path d="M67.575 229.416a2.019 2.019 0 0 1-2.022-2.019v-25.994l-5.627 10.088c-.713 1.283-2.821 1.283-3.532 0l-5.626-10.088v25.994a2.02 2.02 0 0 1-2.022 2.02 2.021 2.021 0 0 1-2.025-2.02v-33.774c0-.919.625-1.722 1.515-1.955a2.03 2.03 0 0 1 2.274.975l7.649 13.714 7.649-13.714a2.034 2.034 0 0 1 2.274-.975 2.022 2.022 0 0 1 1.515 1.955v33.774a2.02 2.02 0 0 1-2.022 2.02m29.619-.001H78.362a2.02 2.02 0 0 1-2.022-2.019v-33.774c0-1.114.907-2.02 2.022-2.02h18.832a2.02 2.02 0 1 1 0 4.042h-16.81v29.733h16.81a2.019 2.019 0 1 1 0 4.038" fill="#FEFEFE"/><path d="M87.778 212.53h-9.416a2.022 2.022 0 0 1-2.022-2.02c0-1.116.906-2.021 2.022-2.021h9.416a2.021 2.021 0 1 1 0 4.041m38.985 16.886a2.019 2.019 0 0 1-2.022-2.019v-31.752h-14.787v31.752a2.02 2.02 0 0 1-2.022 2.02 2.02 2.02 0 0 1-2.022-2.02v-33.774c0-1.114.906-2.02 2.022-2.02h18.831a2.02 2.02 0 0 1 2.022 2.02v33.774c0 1.117-.903 2.02-2.022 2.02" fill="#FEFEFE"/><path d="M121.003 212.53h-7.31a2.022 2.022 0 0 1-2.023-2.02c0-1.116.907-2.021 2.022-2.021h7.31a2.021 2.021 0 1 1 0 4.041" fill="#FEFEFE"/><g transform="translate(135.09 191.306)"><mask id="b" fill="#fff"><use xlink:href="#a"/></mask><path d="M4.435 35.134h7.688c.245-.016 7.69-.584 7.69-15.4 0-14.812-7.445-15.382-7.765-15.399H4.435v30.8zm-2.022 4.039a2.021 2.021 0 0 1-2.025-2.02V2.32c0-1.117.906-2.022 2.025-2.022h9.71c.523.013 11.736.48 11.736 19.438 0 18.961-11.213 19.427-11.69 19.438H2.413z" fill="#FEFEFE" mask="url(#b)"/></g><path d="M187.137 230.478h-19.424a2.03 2.03 0 0 1-1.744-.996 2.014 2.014 0 0 1-.021-2.006l17.748-31.833h-15.983a2.022 2.022 0 0 1-2.022-2.019c0-1.117.906-2.022 2.022-2.022h19.424a2.021 2.021 0 0 1 1.767 3.002l-17.748 31.836h15.981a2.019 2.019 0 1 1 0 4.038" fill="#FEFEFE"/><g transform="translate(153.864 54.72)"><mask id="d" fill="#fff"><use xlink:href="#c"/></mask><path d="M82.019 19.128C82.019 8.895 73.703.563 63.466.52L.143 9.363v19.693l63.406 8.685c10.11-.005 18.47-8.353 18.47-18.613" fill="#FEFEFE" mask="url(#d)"/></g><g transform="translate(153.864 54.72)"><mask id="f" fill="#fff"><use xlink:href="#e"/></mask><path d="M82.019 19.128C82.019 8.895 73.703.563 63.466.52L.143 9.363v19.693l63.406 8.685c10.11-.005 18.47-8.353 18.47-18.613" fill="#FEFEFE" mask="url(#f)"/></g><path d="M154.006 102l32.718 4.148c6.128-.003 11.532-4.41 12.851-10.4l-.12-.146-45.45-7.352V102zM0 73.848C0 63.614 8.317 55.283 18.553 55.24l63.323 8.843v19.693L18.47 92.46C8.36 92.456 0 84.108 0 73.848M81.877 102l-32.718 4.148c-6.128-.003-11.532-4.41-12.851-10.4l.12-.146 45.449-7.352V102zm40.56 42.76h-8.992a1.338 1.338 0 0 0-1.317 1.591l4.497 23.48a1.339 1.339 0 0 0 1.317 1.087c.644 0 1.199-.455 1.317-1.087l4.495-23.48a1.338 1.338 0 0 0-1.317-1.59M143.939 1.735l-14.624 19.17a2.682 2.682 0 0 0 .506 3.755c.489.37 1.06.546 1.626.546.81 0 1.606-.364 2.137-1.055l14.624-19.17a2.683 2.683 0 0 0-4.27-3.246" fill="#FEFEFE"/><g transform="translate(86.818 .156)"><mask id="h" fill="#fff"><use xlink:href="#g"/></mask><path d="M17.619 25.05c.565 0 1.137-.177 1.622-.549a2.677 2.677 0 0 0 .51-3.752L5.127 1.58a2.682 2.682 0 0 0-4.27 3.246l14.624 19.17a2.684 2.684 0 0 0 2.138 1.055" fill="#FEFEFE" mask="url(#h)"/></g><path d="M101.752 36.113a2.68 2.68 0 0 0 2.682 2.678h27.014a2.68 2.68 0 1 0 0-5.356h-27.014a2.68 2.68 0 0 0-2.682 2.678m29.697 97.142h-27.014a2.68 2.68 0 1 0 0 5.356h27.014a2.68 2.68 0 1 0 0-5.356m6.231-84.133a4.017 4.017 0 0 0-4.525 1.933l-15.211 27.286-15.214-27.286a4.03 4.03 0 0 0-4.527-1.933 4.018 4.018 0 0 0-3.012 3.888v67.177a4.02 4.02 0 0 0 4.023 4.017 4.02 4.02 0 0 0 4.023-4.017V68.482l11.19 20.07a4.03 4.03 0 0 0 3.517 2.063 4.02 4.02 0 0 0 3.513-2.063l11.188-20.07v51.705a4.02 4.02 0 0 0 4.023 4.017 4.02 4.02 0 0 0 4.023-4.017V53.01c0-1.829-1.24-3.43-3.012-3.888" fill="#FEFEFE"/></g></svg>