<svg width="375" height="262" xmlns="http://www.w3.org/2000/svg"><title>Page 1</title><g fill="none" fill-rule="evenodd"><path d="M355.958 34.345c-5.12 7.862-7.784 8.86-15.318 6.988-7.534-1.871-14.943-1.498-20.979-.25-6.035 1.249-5.162-6.988-5.162-6.988s-.041-19.551 5.162-20.758l41.958 1.665s-.541 11.48-5.661 19.343m18.648-20.841C373.44 5.516 362.45 2.189 362.45 2.189S321.66.691 316.997.691c-4.662 0-12.821 2.33-15.152 21.132-2.33 18.803 2.165 29.619 2.165 29.619 7.326 18.304 21.645 20.966 30.969 19.802 9.324-1.165 15.818-6.157 24.476-15.475 8.657-9.319 16.316-34.279 15.15-42.265" fill="#F08077"/><path d="M359.454 55.769c8.658-9.318 16.317-34.279 15.152-42.265-.767-5.258-5.79-8.496-9.134-10.096 2.454 2.394 5.044 6.538 4.306 13.09-1.332 11.815-13.82 43.937-37.63 47.594-8.466 1.3-14.173 1.676-18.014 1.62 6.905 5.45 14.892 6.275 20.845 5.532 9.324-1.165 15.817-6.157 24.475-15.475" fill="#E94A3C"/><path d="M359.454 55.769c8.658-9.318 16.317-34.279 15.152-42.265-.767-5.258-5.79-8.496-9.134-10.096 2.454 2.394 5.044 6.538 4.306 13.09-1.332 11.815-13.82 43.937-37.63 47.594-8.466 1.3-14.173 1.676-18.014 1.62 6.905 5.45 14.892 6.275 20.845 5.532 9.324-1.165 15.817-6.157 24.475-15.475" fill="#F25548"/><path d="M264.716 209.02s42.234 1.225 63.104 6.323c22.477 5.492 7.658 35.777 7.658 35.777l-8.158 1.164 3.663-16.64s0-9.484-5.994-10.65c-5.994-1.164-46.453-6.655-60.273-6.156-13.82.5 0-9.817 0-9.817" fill="#E6AA41"/><path d="M324.989 224.995c-5.994-1.165-46.453-6.656-60.273-6.156a20.42 20.42 0 0 1-2.411-.041l4.908 31.49 60.107 1.996 3.663-16.64s0-9.484-5.994-10.65" fill="#EDC47A"/><path d="M284.78 230.652l33.466-161.988s3.163-5.824 9.906-4.326c6.743 1.497 8.159 5.658 8.159 5.658l-28.555 142.186-5.12 7.738 4.121 12.978s-2.372 7.738-6.618 9.486c-4.246 1.746-10.24-.5-10.74-2.371-.5-1.873-4.62-9.36-4.62-9.36" fill="#F08077"/><path d="M291.145 199.837l-6.366 30.815s4.12 7.488 4.62 9.36c.5 1.872 6.494 4.118 10.74 2.372 4.246-1.748 6.618-9.485 6.618-9.485l-4.12-12.979 5.12-7.738 1.856-9.247c-5.483-2.86-13.652-3.192-18.468-3.098" fill="#E6AA41"/><path fill="#EDC47A" d="M31.588 246.1l20.663-72.774 33.252 8.26 11.637 64.515z"/><path fill="#E6AA41" d="M85.383 181.693l24.522-5.507 26.899 69.914H96.902z"/><path fill="#F5DDB3" d="M52.251 173.54l33.133-2.492 24.522 5.459-24.522 5.4z"/><path fill="#E6AA41" d="M149.629 246.1l25.16-82.361 32.685 9.68V246.1z"/><path fill="#EDC47A" d="M207.474 173.419l29.296-6.323 39.687 79.004h-68.983z"/><path fill="#F5DDB3" d="M174.35 163.853h30.631l31.35 3.473-29.737 6.12z"/><path d="M248.674 230.128c-1.352-5.044-6.54-9.025-11.586-9.025-5.047 0-8.042 3.928-6.69 8.972l4.34 16.025h18.275l-4.34-15.972z" fill="#E9B75E"/><path d="M233.745 221.918c-2.922 1.381-4.364 4.419-3.347 8.21l4.34 15.972h11.21l-4.34-15.971c-1.017-3.792-4.201-6.83-7.863-8.21" fill="#E6AA41"/><path d="M104.51 197.474c-3.009 0-4.717 2.51-3.797 5.516l2.595 8.553h10.925l-2.595-8.553c-.92-3.006-4.119-5.516-7.128-5.516" fill="#EDC47A"/><path d="M102.506 197.909c-1.698.83-2.481 2.832-1.793 5.082l2.594 8.552h6.65l-2.594-8.552c-.688-2.25-2.652-4.252-4.857-5.082" fill="#F5DDB3"/><path d="M181.913 197.474c3.01 0 4.717 2.51 3.797 5.516l-2.594 8.553H172.19l2.595-8.553c.92-3.006 4.12-5.516 7.128-5.516" fill="#EDC47A"/><path d="M183.918 197.909c1.698.83 2.48 2.832 1.792 5.082l-2.594 8.552h-6.65l2.594-8.552c.688-2.25 2.652-4.252 4.858-5.082" fill="#F5DDB3"/><path fill="#EDC47A" d="M181.9 214.722h-77.873l-.83-3.56h80.01z"/><path d="M13.3 251.867s19-19.205 44.651-13.96c25.651 5.246 13.292 2.56 49.397 3.053 36.106.494 65.556-5.968 88.356.51 22.801 6.477 33.587 2.886 62.87 3.605 29.283.72 53.783-4.53 72.409 4.085 18.625 8.615 30.636 12.837 30.636 12.837H0s6.664-4.803 13.3-10.13" fill="#F8B423"/></g></svg>