<svg width="80" height="80" xmlns="http://www.w3.org/2000/svg" xmlns:xlink="http://www.w3.org/1999/xlink"><title>ecu</title><defs><path d="M5.237.117A39.759 39.759 0 0 0 .057 19.8C.058 41.86 17.942 59.742 40 59.742c22.06 0 39.941-17.882 39.941-39.942A39.76 39.76 0 0 0 74.763.117H5.237z" id="a"/><path d="M5.14 2.874c-1.263-.012-3.17-.167-5-.846V.058h5v2.816z" id="c"/><path d="M5.315 2.02c-1.827.682-3.732.84-5 .854V.059h5V2.02z" id="e"/></defs><g fill="none" fill-rule="evenodd"><path d="M79.87 39.942c0 22.06-17.883 39.942-39.942 39.942C17.868 79.884-.014 62-.014 39.942-.014 17.882 17.87 0 39.928 0 61.988 0 79.87 17.883 79.87 39.942" fill="#D5E6F6"/><g transform="translate(-.072 20.142)"><mask id="b" fill="#fff"><use xlink:href="#a"/></mask><path fill="#2A80CD" mask="url(#b)" d="M40.236 5.05h.806v-2.9h-.806zm-3.407-2.9h7.62v-.806h-7.62z"/><path d="M44.852 1.747a.403.403 0 1 1-.806 0 .403.403 0 0 1 .806 0m-7.62 0a.403.403 0 1 1-.807 0 .403.403 0 0 1 .807 0" fill="#2A80CD" mask="url(#b)"/><path d="M49.075 11.994a8.437 8.437 0 1 1-16.873-.001 8.437 8.437 0 0 1 16.873 0" fill="#6AA6DC" mask="url(#b)"/><path d="M32.203 11.994a8.436 8.436 0 0 0 8.436 8.435V3.557a8.436 8.436 0 0 0-8.436 8.437" fill="#2A80CD" mask="url(#b)"/><path d="M70.405 35.385c0 5.497-3.383 9.952-7.557 9.952-4.173 0-7.556-4.455-7.556-9.952 0-5.496 3.383-9.952 7.556-9.952 4.174 0 7.557 4.456 7.557 9.952m-44.335 0c0 5.497-3.383 9.952-7.556 9.952s-7.556-4.455-7.556-9.952c0-5.496 3.383-9.952 7.556-9.952s7.556 4.456 7.556 9.952" fill="#F28C8A" mask="url(#b)"/><path fill="#F28C8A" mask="url(#b)" d="M49.818 31.421V9.254L62.848.117V31.42z"/><path fill="#FFF" mask="url(#b)" d="M49.818 31.421V12.634l9.65-6.092v24.88z"/><path fill="#F28C8A" mask="url(#b)" d="M18.514 31.421V.117l13.03 9.137V31.42z"/><path fill="#FFF" mask="url(#b)" d="M21.894 31.421V6.542l9.65 6.092V31.42z"/><path d="M40.681 126.45c-12.199 0-27.107-9.889-27.107-22.087l5.02-75.078C18.594 17.087 28.482 7.2 40.68 7.2s22.087 9.888 22.087 22.086l5.02 75.078c0 12.198-14.908 22.087-27.107 22.087" fill="#F28C8A" mask="url(#b)"/><path d="M22.447 16.822a21.962 21.962 0 0 0-3.511 8.611c.107.123.217.243.333.36 3.394 3.394 9.572 2.72 9.572 2.72s.674-6.178-2.72-9.572c-1.048-1.047-2.36-1.707-3.674-2.119" fill="#FFF" mask="url(#b)"/><path d="M67.788 70.796c11.887 0 21.524-9.636 21.524-21.523V92.32" fill="#53C126" mask="url(#b)"/><path d="M40.653 54.4c-9.093 0-16.465 7.37-16.465 16.464l-3.742 42.912c0 2.013.546 3.94 1.492 5.723 5.331 4.279 12.403 6.951 18.743 6.951 6.299 0 13.32-2.637 18.639-6.867.974-1.806 1.54-3.762 1.54-5.807l-3.742-42.912c0-9.094-7.372-16.465-16.465-16.465" fill="#FFF" mask="url(#b)"/><path d="M44.436 31.421c0 1.913-3.755 3.464-3.755 3.464s-3.754-1.55-3.754-3.464c0-1.913 1.68-3.464 3.754-3.464s3.755 1.551 3.755 3.464" fill="#ED6563" mask="url(#b)"/><path d="M42.69 28.872c0 .527-.9.955-2.009.955-1.11 0-2.008-.428-2.008-.955 0-.528.899-.956 2.008-.956s2.008.428 2.008.956m19.737-3.439a21.955 21.955 0 0 0-3.51-8.61c-1.315.411-2.627 1.07-3.674 2.118-3.395 3.394-2.72 9.571-2.72 9.571s6.176.675 9.57-2.72c.117-.116.228-.236.334-.359M40.681 44.326h-2.896V39.9l2.896-3.646zm2.896 0h-2.896v-8.072l2.896 3.646z" fill="#FFF" mask="url(#b)"/><path d="M33.012 36.255S10.748 34.89.202 48.504m32.81-12.25S11.323 31.045-1.426 42.62m34.438-6.365S10.85 38.778 2.828 54.015m45.522-17.76s22.264-1.364 32.81 12.249m-32.81-12.25s21.689-5.209 34.438 6.366M48.35 36.255s22.162 2.523 30.183 17.76m-37.852-19.13a5.792 5.792 0 0 1-5.792 5.792m11.583 0a5.792 5.792 0 0 1-5.791-5.792" stroke="#E83F3C" stroke-width="2" mask="url(#b)"/></g><g transform="translate(22.169 45.834)"><mask id="d" fill="#fff"><use xlink:href="#c"/></mask><path d="M5.14 2.559a2.5 2.5 0 1 1-5 0 2.5 2.5 0 0 1 5 0" fill="#53C126" mask="url(#d)"/></g><g transform="translate(53.613 45.834)"><mask id="f" fill="#fff"><use xlink:href="#e"/></mask><path d="M5.315 2.559a2.5 2.5 0 1 1-5 0 2.5 2.5 0 0 1 5 0" fill="#53C126" mask="url(#f)"/></g></g></svg>