<svg preserveAspectRatio="none" id="Calque_1" xmlns="http://www.w3.org/2000/svg" viewBox="0 0 44 438"><style>.st0{fill:#fff}</style><title>Fichier 1</title><path class="st0" d="M24.2 418.1c0-11 8.9-19.9 19.8-19.9-11 0-19.9-8.9-19.9-19.9 0-11 8.9-19.9 19.9-19.9-11 0-19.9-8.9-19.9-19.9 0-11 8.9-19.9 19.9-19.9-11 0-19.9-8.9-19.9-19.9 0-11 8.9-19.9 19.9-19.9-11 0-19.9-8.9-19.9-19.9 0-11 8.9-19.9 19.9-19.9-11 0-19.9-8.9-19.9-19.9 0-11 8.9-19.9 19.9-19.9-11 0-19.9-8.9-19.9-19.9 0-11 8.9-19.9 19.9-19.9-11 0-19.9-8.9-19.9-19.9 0-11 8.9-19.9 19.9-19.9-11 0-19.9-8.9-19.9-19.9 0-11 8.9-19.9 19.9-19.9-11 0-19.9-8.9-19.9-19.9S33 39.8 44 39.8C33 39.3 24.5 30 25 19 25.5 8.7 33.7.5 44 0H0v438h44c-11 0-19.9-8.9-19.8-19.9z"/><title>Fichier 1</title></svg>