<svg xmlns="http://www.w3.org/2000/svg" preserveAspectRatio="none" viewBox="0 0 516 44"><title>waves</title><g data-name="Calque 2"><path d="M516 0a19.84 19.84 0 0 1-19.84 19.8A19.84 19.84 0 0 1 476.32 0a19.84 19.84 0 0 1-19.85 19.83A19.84 19.84 0 0 1 436.62 0a19.84 19.84 0 0 1-19.85 19.83A19.84 19.84 0 0 1 396.92 0a19.84 19.84 0 0 1-19.84 19.83A19.84 19.84 0 0 1 357.24 0a19.84 19.84 0 0 1-19.85 19.83A19.84 19.84 0 0 1 317.54 0a19.84 19.84 0 0 1-19.85 19.83A19.84 19.84 0 0 1 277.84 0 19.84 19.84 0 0 1 258 19.83 19.84 19.84 0 0 1 238.16 0a19.84 19.84 0 0 1-19.85 19.84A19.84 19.84 0 0 1 198.46 0a19.84 19.84 0 0 1-19.85 19.84A19.84 19.84 0 0 1 158.77 0a19.84 19.84 0 0 1-19.84 19.83A19.84 19.84 0 0 1 119.08 0a19.84 19.84 0 0 1-19.84 19.83A19.84 19.84 0 0 1 79.39 0a19.84 19.84 0 0 1-19.85 19.84A19.84 19.84 0 0 1 39.7 0a19.84 19.84 0 0 1-19.85 19.84A19.84 19.84 0 0 1 0 0v44h516z" fill="#fff" data-name="Calque 1"/></g></svg>