<svg data-name="Calque 1" xmlns="http://www.w3.org/2000/svg" preserveAspectRatio="none" viewBox="0 0 44 438"><title>wave-work-r</title><path d="M19.83 418.09A19.87 19.87 0 0 0 0 398.18a19.91 19.91 0 0 0 19.91-19.91A19.91 19.91 0 0 0 0 358.36a19.91 19.91 0 0 0 19.91-19.91A19.91 19.91 0 0 0 0 318.54a19.91 19.91 0 0 0 19.91-19.91A19.91 19.91 0 0 0 0 278.72a19.91 19.91 0 0 0 19.91-19.91A19.91 19.91 0 0 0 0 238.9 19.91 19.91 0 0 0 19.91 219 19.91 19.91 0 0 0 0 199.08a19.91 19.91 0 0 0 19.91-19.91A19.91 19.91 0 0 0 0 159.26a19.91 19.91 0 0 0 19.91-19.91A19.91 19.91 0 0 0 0 119.44a19.92 19.92 0 0 0 19.92-19.92A19.92 19.92 0 0 0 0 79.6a19.91 19.91 0 0 0 19.91-19.91A19.91 19.91 0 0 0 0 39.78 19.91 19.91 0 0 0 19 19 19.91 19.91 0 0 0 0 0h44v438H0a19.87 19.87 0 0 0 19.83-19.91z" fill="#fff"/></svg>