<svg xmlns="http://www.w3.org/2000/svg" preserveAspectRatio="none" viewBox="0 0 1428.06 44"><title>blue-wave</title><g data-name="Calque 2"><path d="M1408.23 19.83A19.83 19.83 0 0 1 1388.39 0a19.83 19.83 0 0 1-19.83 19.83A19.83 19.83 0 0 1 1348.73 0a19.83 19.83 0 0 1-39.67 0 19.83 19.83 0 0 1-39.67 0 19.83 19.83 0 0 1-39.67 0 19.83 19.83 0 0 1-39.67 0 19.83 19.83 0 0 1-19.83 19.83A19.83 19.83 0 0 1 1150.38 0a19.83 19.83 0 0 1-39.67 0A19.83 19.83 0 0 1 1071 0a19.83 19.83 0 0 1-39.67 0 19.83 19.83 0 0 1-19.83 19.83A19.83 19.83 0 0 1 991.71 0 19.83 19.83 0 0 1 952 0a19.83 19.83 0 0 1-39.67 0 19.83 19.83 0 0 1-39.63 0A19.83 19.83 0 0 1 833 0a19.83 19.83 0 0 1-39.67 0 19.83 19.83 0 1 1-39.63 0A19.83 19.83 0 0 1 714 0a19.83 19.83 0 0 1-39.67 0 19.83 19.83 0 0 1-39.67 0A19.83 19.83 0 0 1 595 0a19.83 19.83 0 1 1-39.67 0 19.83 19.83 0 0 1-39.67 0A19.83 19.83 0 0 1 476 0a19.83 19.83 0 0 1-39.67 0 19.83 19.83 0 0 1-39.67 0A19.83 19.83 0 0 1 357 0a19.83 19.83 0 1 1-39.67 0 19.83 19.83 0 0 1-39.67 0A19.83 19.83 0 0 1 238 0a19.83 19.83 0 0 1-39.67 0 19.83 19.83 0 0 1-39.67 0A19.83 19.83 0 0 1 119 0a19.83 19.83 0 1 1-39.66 0 19.83 19.83 0 0 1-39.67 0A19.83 19.83 0 0 1 0 0v44h1428.06V0a19.83 19.83 0 0 1-19.83 19.83z" fill="#2a80cd" data-name="Calque 1"/></g></svg>