<svg width="44" height="1012" xmlns="http://www.w3.org/2000/svg"><title>Page 1 Copy 4</title><path d="M24.259 991.69c0-10.996 8.915-19.911 19.911-19.911-10.996 0-19.911-8.914-19.911-19.911 0-10.996 8.915-19.911 19.911-19.911-10.996 0-19.911-8.914-19.911-19.912 0-10.996 8.915-19.911 19.911-19.911-10.996 0-19.911-8.914-19.911-19.911 0-10.996 8.915-19.911 19.911-19.911-10.996 0-19.911-8.914-19.911-19.911 0-10.996 8.915-19.911 19.911-19.911-10.996 0-19.911-8.914-19.911-19.911 0-10.996 8.915-19.911 19.911-19.911-10.996 0-19.911-8.915-19.911-19.912 0-10.996 8.915-19.911 19.911-19.911-10.996 0-19.911-8.914-19.911-19.911 0-10.996 8.915-19.911 19.911-19.911-10.996 0-19.911-8.914-19.911-19.911 0-10.996 8.915-19.911 19.911-19.911-10.996 0-19.911-8.914-19.911-19.911 0-10.996 8.915-19.912 19.911-19.912-10.996 0-19.911-8.914-19.911-19.911 0-10.996 8.915-19.911 19.911-19.911-10.996 0-19.911-8.914-19.911-19.911 0-10.996 8.915-19.911 19.911-19.911-10.996 0-19.911-8.914-19.911-19.911 0-10.996 8.915-19.911 19.911-19.911-10.996 0-19.911-8.914-19.911-19.912 0-10.996 8.915-19.911 19.911-19.911-10.996 0-19.911-8.914-19.911-19.911 0-10.996 8.915-19.911 19.911-19.911-10.996 0-19.911-8.914-19.911-19.911 0-10.997 8.915-19.911 19.911-19.911-10.996 0-19.911-8.914-19.911-19.911 0-10.997 8.915-19.911 19.911-19.911-10.996 0-19.911-8.915-19.911-19.912S33.174 294.8 44.17 294.8c-10.996 0-19.911-8.914-19.911-19.911 0-10.997 8.915-19.911 19.911-19.911-10.996 0-19.911-8.915-19.911-19.911 0-10.997 8.915-19.911 19.911-19.911-10.996 0-19.911-8.915-19.911-19.911 0-10.997 8.915-19.912 19.911-19.912-10.996 0-19.911-8.915-19.911-19.911 0-10.997 8.915-19.911 19.911-19.911-10.996 0-19.911-8.915-19.911-19.911 0-10.997 8.915-19.911 19.911-19.911-10.996 0-19.911-8.915-19.911-19.911 0-10.997 8.915-19.911 19.911-19.911-10.996 0-19.911-8.915-19.911-19.911 0-10.997 8.915-19.912 19.911-19.912-10.996 0-19.911-8.915-19.911-19.911 0-10.997 8.915-19.911 19.911-19.911-10.996 0-19.911-8.915-19.911-19.911 0-10.997 8.915-19.911 19.911-19.911-10.996 0-19.911-8.915-19.911-19.911 0-10.997 8.915-19.911 19.911-19.911-10.996 0-19.911-8.915-19.911-19.911 0-10.998 8.915-19.912 19.911-19.912-10.996 0-19.911-8.915-19.911-19.911 0-10.997 8.915-19.911 19.911-19.911-10.996 0-19.911-8.915-19.911-19.911 0-10.997 8.915-19.911 19.911-19.911-10.996 0-19.911-8.915-19.911-19.911 0-10.997 8.915-19.911 19.911-19.911-10.996 0-19.911-8.915-19.911-19.912s8.915-19.911 19.911-19.911c-10.996 0-19.911-8.915-19.911-19.911 0-10.997 8.915-19.911 19.911-19.911-10.996 0-19.911-8.915-19.911-19.911 0-10.997 8.915-19.911 19.911-19.911-10.996 0-19.911-8.915-19.911-19.911 0-10.997 8.915-19.911 19.911-19.911H0v1433.601h44.17c-10.996 0-19.911-8.914-19.911-19.911" fill="#FFF" fill-rule="evenodd"/></svg>